STARTFONT 2.2
FONT -FontForge-Monomaniac One-Book-R-Normal--24-240-75-75-P-119-ISO10646-1
SIZE 24 75 75
FONTBOUNDINGBOX 23 30 0 -7
METRICSSET 2
SWIDTH 555 0
DWIDTH 13 0
SWIDTH1 1000 0
DWIDTH1 24 0
VVECTOR 12,21
COMMENT "Generated by fontforge, http://fontforge.sourceforge.net"
COMMENT "Copyright 2020 The Monomaniac Project Authors (https://github.com/ManiackersDesign/monomaniac), all rights reserved."
STARTPROPERTIES 40
FOUNDRY "FontForge"
FAMILY_NAME "Monomaniac One"
WEIGHT_NAME "Book"
SLANT "R"
SETWIDTH_NAME "Normal"
ADD_STYLE_NAME ""
PIXEL_SIZE 24
POINT_SIZE 240
RESOLUTION_X 75
RESOLUTION_Y 75
SPACING "P"
AVERAGE_WIDTH 119
CHARSET_REGISTRY "ISO10646"
CHARSET_ENCODING "1"
FONTNAME_REGISTRY ""
CHARSET_COLLECTIONS "JISX0208.1997 ISO10646-1"
FONT_NAME "MonomaniacOne-Regular"
FACE_NAME "Monomaniac One Regular"
COPYRIGHT "Copyright 2020 The Monomaniac Project Authors (https://github.com/ManiackersDesign/monomaniac), all rights reserved."
FONT_VERSION "1.000; ttfautohint (v1.8.3)"
FONT_ASCENT 21
FONT_DESCENT 3
UNDERLINE_POSITION -3
UNDERLINE_THICKNESS 2
X_HEIGHT 12
CAP_HEIGHT 16
RAW_ASCENT 880
RAW_DESCENT 120
NORM_SPACE 6
RELATIVE_WEIGHT 40
RELATIVE_SETWIDTH 50
SUPERSCRIPT_X 0
SUPERSCRIPT_Y 8
SUPERSCRIPT_SIZE 14
SUBSCRIPT_X 0
SUBSCRIPT_Y 1
SUBSCRIPT_SIZE 14
FIGURE_WIDTH 13
AVG_LOWERCASE_WIDTH 105
AVG_UPPERCASE_WIDTH 130
ENDPROPERTIES
CHARS 526
STARTCHAR CR
ENCODING 13
SWIDTH 581 0
DWIDTH 14 0
BBX 1 1 0 0
BITMAP
00
ENDCHAR
STARTCHAR space
ENCODING 32
SWIDTH 230 0
DWIDTH 6 0
BBX 1 1 0 0
BITMAP
00
ENDCHAR
STARTCHAR exclam
ENCODING 33
SWIDTH 232 0
DWIDTH 6 0
BBX 4 17 1 0
BITMAP
60
E0
E0
E0
E0
E0
E0
E0
E0
E0
E0
E0
00
60
E0
F0
60
ENDCHAR
STARTCHAR quotedbl
ENCODING 34
SWIDTH 343 0
DWIDTH 8 0
BBX 6 4 1 13
BITMAP
EC
FC
FC
EC
ENDCHAR
STARTCHAR numbersign
ENCODING 35
SWIDTH 562 0
BBX 12 17 1 0
BITMAP
0CC0
0FC0
1DC0
1DC0
1DC0
7FE0
7FF0
7FE0
3B80
FFE0
FFE0
FFE0
3F00
7700
7700
7700
7700
ENDCHAR
STARTCHAR dollar
ENCODING 36
SWIDTH 539 0
BBX 11 20 1 -2
BITMAP
0E00
7F80
7FC0
FFE0
EEE0
EEE0
EE00
FE00
7E00
3F80
0FC0
0FE0
0EE0
EEE0
EEE0
FFE0
7FC0
7F80
0E00
0E00
ENDCHAR
STARTCHAR percent
ENCODING 37
SWIDTH 714 0
DWIDTH 17 0
BBX 15 17 1 0
BITMAP
7838
FC38
FC70
ECF0
ECE0
FDE0
FDC0
7BC0
0380
07BC
077E
0F7E
0E7E
1E7E
1C7E
3C7E
183C
ENDCHAR
STARTCHAR ampersand
ENCODING 38
SWIDTH 524 0
BBX 11 17 1 0
BITMAP
7C00
7E00
FF00
E700
E700
EF00
FE00
7FC0
7DC0
FFC0
FF80
EF80
E780
E780
FFC0
7FE0
7CC0
ENDCHAR
STARTCHAR quotesingle
ENCODING 39
SWIDTH 200 0
DWIDTH 5 0
BBX 3 4 1 13
BITMAP
E0
E0
E0
E0
ENDCHAR
STARTCHAR parenleft
ENCODING 40
SWIDTH 298 0
DWIDTH 7 0
BBX 5 17 1 0
BITMAP
78
78
F8
E0
E0
E0
E0
E0
E0
E0
E0
E0
E0
E0
F8
78
78
ENDCHAR
STARTCHAR parenright
ENCODING 41
SWIDTH 298 0
DWIDTH 7 0
BBX 5 17 1 0
BITMAP
F0
F8
F8
38
38
38
38
38
38
38
38
38
38
38
F8
F8
F0
ENDCHAR
STARTCHAR asterisk
ENCODING 42
SWIDTH 472 0
DWIDTH 11 0
BBX 9 9 1 8
BITMAP
7700
7F00
3E00
FF80
FF80
FF80
3E00
7F00
7700
ENDCHAR
STARTCHAR plus
ENCODING 43
SWIDTH 399 0
DWIDTH 10 0
BBX 8 8 1 3
BITMAP
18
38
38
FE
FF
FE
38
38
ENDCHAR
STARTCHAR comma
ENCODING 44
SWIDTH 231 0
DWIDTH 6 0
BBX 4 5 1 -2
BITMAP
E0
F0
E0
E0
E0
ENDCHAR
STARTCHAR hyphen
ENCODING 45
SWIDTH 400 0
DWIDTH 10 0
BBX 8 3 1 5
BITMAP
FE
FF
FE
ENDCHAR
STARTCHAR period
ENCODING 46
SWIDTH 232 0
DWIDTH 6 0
BBX 4 4 1 0
BITMAP
60
E0
F0
60
ENDCHAR
STARTCHAR slash
ENCODING 47
SWIDTH 514 0
DWIDTH 12 0
BBX 10 17 1 0
BITMAP
00C0
01C0
01C0
0380
0380
0700
0700
0E00
0E00
1C00
1C00
3800
7800
7000
F000
E000
E000
ENDCHAR
STARTCHAR zero
ENCODING 48
SWIDTH 539 0
BBX 11 17 1 0
BITMAP
7F80
7FC0
FFE0
E3E0
E3E0
E7E0
E7E0
EFE0
EEE0
FEE0
FCE0
FCE0
F8E0
F8E0
FFE0
7FC0
3F80
ENDCHAR
STARTCHAR one
ENCODING 49
SWIDTH 539 0
BBX 5 17 4 0
BITMAP
38
78
F8
F8
F8
38
38
38
38
38
38
38
38
38
38
38
38
ENDCHAR
STARTCHAR two
ENCODING 50
SWIDTH 539 0
BBX 11 17 1 0
BITMAP
7F80
7FC0
FFE0
E0E0
E0E0
00E0
01E0
0FC0
3F80
7E00
F000
E000
E000
E000
FFE0
7FE0
7FE0
ENDCHAR
STARTCHAR three
ENCODING 51
SWIDTH 539 0
BBX 11 17 1 0
BITMAP
7F80
7FC0
FFE0
E0E0
E0E0
00E0
00E0
3FE0
3FE0
3FE0
00E0
00E0
E0E0
E0E0
FFE0
7FC0
7F80
ENDCHAR
STARTCHAR four
ENCODING 52
SWIDTH 539 0
BBX 11 17 1 0
BITMAP
0380
0380
0380
3B80
3B80
7B80
7380
F380
E380
E380
E380
FFE0
FFE0
FFE0
0380
0380
0380
ENDCHAR
STARTCHAR five
ENCODING 53
SWIDTH 539 0
BBX 11 17 1 0
BITMAP
FFE0
FFE0
FFE0
E000
E000
E000
FF80
FFC0
FFE0
00E0
00E0
E0E0
E0E0
E0E0
FFE0
7FC0
3F80
ENDCHAR
STARTCHAR six
ENCODING 54
SWIDTH 539 0
BBX 11 17 1 0
BITMAP
7F80
7FC0
FFE0
E0E0
E0E0
E000
FF80
FFC0
FFE0
E0E0
E0E0
E0E0
E0E0
E0E0
FFE0
7FC0
7F80
ENDCHAR
STARTCHAR seven
ENCODING 55
SWIDTH 539 0
BBX 11 17 1 0
BITMAP
FFE0
FFE0
FFE0
E0E0
E0E0
00E0
01E0
01C0
01C0
0380
0380
0380
0700
0700
0F00
0E00
0E00
ENDCHAR
STARTCHAR eight
ENCODING 56
SWIDTH 539 0
BBX 11 17 1 0
BITMAP
7F80
7FC0
FFE0
E0E0
E0E0
E0E0
E0E0
FFE0
FFE0
FFE0
E0E0
E0E0
E0E0
E0E0
FFE0
7FC0
7F80
ENDCHAR
STARTCHAR nine
ENCODING 57
SWIDTH 539 0
BBX 11 17 1 0
BITMAP
3F80
7FC0
FFE0
E0E0
E0E0
E0E0
E0E0
E0E0
FFE0
7FE0
3FE0
00E0
E0E0
E0E0
FFE0
FFC0
7F80
ENDCHAR
STARTCHAR colon
ENCODING 58
SWIDTH 232 0
DWIDTH 6 0
BBX 4 9 1 2
BITMAP
60
F0
E0
60
00
60
E0
F0
60
ENDCHAR
STARTCHAR semicolon
ENCODING 59
SWIDTH 230 0
DWIDTH 6 0
BBX 4 11 1 0
BITMAP
60
E0
F0
60
00
00
E0
F0
E0
E0
E0
ENDCHAR
STARTCHAR less
ENCODING 60
SWIDTH 409 0
DWIDTH 10 0
BBX 8 13 1 0
BITMAP
07
0F
1E
3C
78
F0
E0
F0
78
3C
1E
0F
07
ENDCHAR
STARTCHAR equal
ENCODING 61
SWIDTH 398 0
DWIDTH 10 0
BBX 8 7 1 4
BITMAP
FE
FF
FE
00
FE
FF
FE
ENDCHAR
STARTCHAR greater
ENCODING 62
SWIDTH 411 0
DWIDTH 10 0
BBX 8 13 1 0
BITMAP
E0
F0
78
3C
1E
0F
0F
0F
1E
3C
78
F0
E0
ENDCHAR
STARTCHAR question
ENCODING 63
SWIDTH 539 0
BBX 11 17 1 0
BITMAP
7F80
7FC0
FFE0
E0E0
E0E0
E0E0
01E0
07C0
0F80
0E00
0E00
0E00
0000
0400
0E00
0E00
0E00
ENDCHAR
STARTCHAR at
ENCODING 64
SWIDTH 681 0
DWIDTH 16 0
BBX 14 17 1 0
BITMAP
7FF8
FFFC
FFFC
E00C
E7EC
EFEC
EFEC
EDCC
EDCC
EDCC
EFFC
EFFC
E7F8
E000
FFF0
FFF0
7FF0
ENDCHAR
STARTCHAR A
ENCODING 65
SWIDTH 599 0
DWIDTH 14 0
BBX 12 17 1 0
BITMAP
0700
0F00
0F00
0F80
1F80
1F80
1FC0
1DC0
39C0
39C0
3FE0
7FE0
7FE0
7070
E070
E070
E030
ENDCHAR
STARTCHAR B
ENCODING 66
SWIDTH 526 0
BBX 11 17 1 0
BITMAP
FF80
FFC0
FFC0
E1C0
E1C0
E1C0
E1C0
FFC0
FFC0
FFE0
E0E0
E0E0
E0E0
E0E0
FFE0
FFC0
FF80
ENDCHAR
STARTCHAR C
ENCODING 67
SWIDTH 526 0
BBX 11 17 1 0
BITMAP
7F80
FFC0
FFE0
E0E0
E0E0
E000
E000
E000
E000
E000
E000
E000
E0E0
E0E0
FFE0
FFC0
7F80
ENDCHAR
STARTCHAR D
ENCODING 68
SWIDTH 526 0
BBX 11 17 1 0
BITMAP
FF80
FFC0
FFE0
E0E0
E0E0
E0E0
E0E0
E0E0
E0E0
E0E0
E0E0
E0E0
E0E0
E0E0
FFE0
FFC0
FF80
ENDCHAR
STARTCHAR E
ENCODING 69
SWIDTH 514 0
DWIDTH 12 0
BBX 10 17 1 0
BITMAP
FFC0
FFC0
FFC0
E000
E000
E000
E000
FF80
FFC0
FF80
E000
E000
E000
E000
FFC0
FFC0
FFC0
ENDCHAR
STARTCHAR F
ENCODING 70
SWIDTH 514 0
DWIDTH 12 0
BBX 10 17 1 0
BITMAP
FFC0
FFC0
FFC0
E000
E000
E000
E000
FF80
FFC0
FF80
E000
E000
E000
E000
E000
E000
E000
ENDCHAR
STARTCHAR G
ENCODING 71
SWIDTH 539 0
BBX 11 17 1 0
BITMAP
7F80
7FC0
FFE0
E0E0
E0E0
E000
E000
E7E0
E7E0
E7E0
E0E0
E0E0
E0E0
E0E0
FFE0
7FC0
7F80
ENDCHAR
STARTCHAR H
ENCODING 72
SWIDTH 526 0
BBX 11 17 1 0
BITMAP
E0C0
E0E0
E0E0
E0E0
E0E0
E0E0
E0E0
FFE0
FFE0
FFE0
E0E0
E0E0
E0E0
E0E0
E0E0
E0E0
E0C0
ENDCHAR
STARTCHAR I
ENCODING 73
SWIDTH 201 0
DWIDTH 5 0
BBX 3 17 1 0
BITMAP
E0
E0
E0
E0
E0
E0
E0
E0
E0
E0
E0
E0
E0
E0
E0
E0
E0
ENDCHAR
STARTCHAR J
ENCODING 74
SWIDTH 526 0
BBX 11 17 1 0
BITMAP
00C0
00E0
00E0
00E0
00E0
00E0
00E0
00E0
00E0
00E0
00E0
E0E0
E0E0
E0E0
FFE0
FFC0
7F80
ENDCHAR
STARTCHAR K
ENCODING 75
SWIDTH 515 0
DWIDTH 12 0
BBX 10 17 1 0
BITMAP
E1C0
E1C0
E3C0
E780
EF00
FE00
FC00
F800
F800
F800
FC00
FE00
EF00
E780
E3C0
E1C0
E1C0
ENDCHAR
STARTCHAR L
ENCODING 76
SWIDTH 514 0
DWIDTH 12 0
BBX 10 17 1 0
BITMAP
E000
E000
E000
E000
E000
E000
E000
E000
E000
E000
E000
E000
E000
E000
FFC0
FFC0
FFC0
ENDCHAR
STARTCHAR M
ENCODING 77
SWIDTH 611 0
DWIDTH 15 0
BBX 13 17 1 0
BITMAP
E030
E078
F078
F0F8
F8F8
F8F8
FDF8
FDF8
FFB8
EFB8
EFB8
E738
E738
E238
E038
E038
E030
ENDCHAR
STARTCHAR N
ENCODING 78
SWIDTH 539 0
BBX 11 17 1 0
BITMAP
E0E0
E0E0
F0E0
F0E0
F8E0
FCE0
FCE0
FEE0
EEE0
EFE0
E7E0
E7E0
E3E0
E3E0
E1E0
E0E0
E0E0
ENDCHAR
STARTCHAR O
ENCODING 79
SWIDTH 539 0
BBX 11 17 1 0
BITMAP
7F80
7FC0
FFE0
E0E0
E0E0
E0E0
E0E0
E0E0
E0E0
E0E0
E0E0
E0E0
E0E0
E0E0
FFE0
7FC0
7F80
ENDCHAR
STARTCHAR P
ENCODING 80
SWIDTH 526 0
BBX 11 17 1 0
BITMAP
FF80
FFC0
FFE0
E0E0
E0E0
E0E0
E0E0
FFE0
FFC0
FF80
E000
E000
E000
E000
E000
E000
E000
ENDCHAR
STARTCHAR Q
ENCODING 81
SWIDTH 539 0
BBX 11 17 1 0
BITMAP
7F80
7FC0
FFE0
E0E0
E0E0
E0E0
E0E0
E0E0
E0E0
E0E0
EEE0
EFE0
E7E0
E3E0
FFE0
7FE0
7FE0
ENDCHAR
STARTCHAR R
ENCODING 82
SWIDTH 539 0
BBX 11 17 1 0
BITMAP
FF80
FFC0
FFE0
E0E0
E0E0
E0E0
E0E0
FFE0
FFC0
FFC0
E380
E380
E1C0
E1C0
E1C0
E0E0
E0E0
ENDCHAR
STARTCHAR S
ENCODING 83
SWIDTH 539 0
BBX 11 17 1 0
BITMAP
7F80
7FC0
FFE0
E0E0
E0E0
E000
F000
7E00
3F80
0FC0
03E0
00E0
E0E0
E0E0
FFE0
7FC0
7F80
ENDCHAR
STARTCHAR T
ENCODING 84
SWIDTH 526 0
BBX 11 17 1 0
BITMAP
FFC0
FFE0
FFC0
0E00
0E00
0E00
0E00
0E00
0E00
0E00
0E00
0E00
0E00
0E00
0E00
0E00
0E00
ENDCHAR
STARTCHAR U
ENCODING 85
SWIDTH 526 0
BBX 11 17 1 0
BITMAP
E0C0
E0E0
E0E0
E0E0
E0E0
E0E0
E0E0
E0E0
E0E0
E0E0
E0E0
E0E0
E0E0
E0E0
FFE0
FFC0
7F80
ENDCHAR
STARTCHAR V
ENCODING 86
SWIDTH 599 0
DWIDTH 14 0
BBX 12 17 1 0
BITMAP
E030
E070
E070
7070
70E0
70E0
38E0
39C0
39C0
1DC0
1FC0
1F80
0F80
0F80
0F00
0F00
0700
ENDCHAR
STARTCHAR W
ENCODING 87
SWIDTH 743 0
DWIDTH 18 0
BBX 16 17 1 0
BITMAP
E007
E007
E007
E18E
718E
73CE
73CE
73CE
3FDC
3FFC
3FFC
3FFC
3EF8
1E78
1E78
1C78
1C30
ENDCHAR
STARTCHAR X
ENCODING 88
SWIDTH 514 0
DWIDTH 12 0
BBX 10 17 1 0
BITMAP
E0C0
E1C0
F1C0
7380
3F80
3F00
1F00
1E00
1E00
1E00
1F00
3F00
3F80
7380
F1C0
E1C0
E0C0
ENDCHAR
STARTCHAR Y
ENCODING 89
SWIDTH 596 0
DWIDTH 14 0
BBX 12 17 1 0
BITMAP
E030
E070
70F0
78E0
39E0
3FC0
1F80
1F80
0F00
0700
0700
0700
0700
0700
0700
0700
0600
ENDCHAR
STARTCHAR Z
ENCODING 90
SWIDTH 526 0
BBX 11 17 1 0
BITMAP
FFC0
FFE0
FFC0
03C0
0380
0780
0700
0E00
0E00
1C00
1C00
3800
3800
7000
FFC0
FFC0
FFC0
ENDCHAR
STARTCHAR bracketleft
ENCODING 91
SWIDTH 297 0
DWIDTH 7 0
BBX 5 17 1 0
BITMAP
F8
F8
F8
E0
E0
E0
E0
E0
E0
E0
E0
E0
E0
E0
F8
F8
F8
ENDCHAR
STARTCHAR backslash
ENCODING 92
SWIDTH 514 0
DWIDTH 12 0
BBX 10 17 1 0
BITMAP
E000
E000
7000
7000
3800
3800
1C00
1C00
0E00
0E00
0700
0700
0380
0380
01C0
01C0
00C0
ENDCHAR
STARTCHAR bracketright
ENCODING 93
SWIDTH 291 0
DWIDTH 7 0
BBX 5 17 1 0
BITMAP
F8
F8
F8
38
38
38
38
38
38
38
38
38
38
38
F8
F8
F8
ENDCHAR
STARTCHAR asciicircum
ENCODING 94
SWIDTH 350 0
DWIDTH 8 0
BBX 7 5 1 12
BITMAP
30
78
FC
FE
CC
ENDCHAR
STARTCHAR underscore
ENCODING 95
SWIDTH 470 0
DWIDTH 11 0
BBX 9 3 1 0
BITMAP
FF80
FF80
FF80
ENDCHAR
STARTCHAR grave
ENCODING 96
SWIDTH 232 0
DWIDTH 6 0
BBX 3 4 1 13
BITMAP
E0
E0
E0
60
ENDCHAR
STARTCHAR a
ENCODING 97
SWIDTH 443 0
DWIDTH 11 0
BBX 9 13 1 0
BITMAP
3F00
3F00
3F80
0380
0380
7F80
FF80
FF80
E380
E380
FF80
FF00
7E00
ENDCHAR
STARTCHAR b
ENCODING 98
SWIDTH 443 0
DWIDTH 11 0
BBX 9 17 1 0
BITMAP
E000
E000
E000
E000
FF00
FF00
FF80
E380
E380
E380
E380
E380
E380
E380
FF80
FF00
7E00
ENDCHAR
STARTCHAR c
ENCODING 99
SWIDTH 443 0
DWIDTH 11 0
BBX 9 13 1 0
BITMAP
7F00
FF00
FF80
E380
E380
E000
E000
E000
E380
E380
FF80
FF00
7E00
ENDCHAR
STARTCHAR d
ENCODING 100
SWIDTH 443 0
DWIDTH 11 0
BBX 9 17 1 0
BITMAP
0300
0380
0380
0380
7F80
FF80
FF80
E380
E380
E380
E380
E380
E380
E380
FF80
FF00
7E00
ENDCHAR
STARTCHAR e
ENCODING 101
SWIDTH 443 0
DWIDTH 11 0
BBX 9 13 1 0
BITMAP
7E00
FF00
FF80
E380
E380
FF80
FF00
FE00
E000
E000
FE00
FE00
7E00
ENDCHAR
STARTCHAR f
ENCODING 102
SWIDTH 365 0
DWIDTH 9 0
BBX 7 17 1 0
BITMAP
7E
FE
FE
E0
FE
FE
FE
E0
E0
E0
E0
E0
E0
E0
E0
E0
E0
ENDCHAR
STARTCHAR g
ENCODING 103
SWIDTH 443 0
DWIDTH 11 0
BBX 9 17 1 -4
BITMAP
7F00
FF00
FF80
E380
E380
E380
E380
E380
E380
E380
FF80
FF80
7F80
0380
3F80
3F00
3E00
ENDCHAR
STARTCHAR h
ENCODING 104
SWIDTH 443 0
DWIDTH 11 0
BBX 9 17 1 0
BITMAP
E000
E000
E000
E000
FF00
FF00
FF80
E380
E380
E380
E380
E380
E380
E380
E380
E380
E300
ENDCHAR
STARTCHAR i
ENCODING 105
SWIDTH 231 0
DWIDTH 6 0
BBX 4 17 1 0
BITMAP
60
F0
E0
60
60
E0
E0
E0
E0
E0
E0
E0
E0
E0
E0
E0
60
ENDCHAR
STARTCHAR j
ENCODING 106
SWIDTH 297 0
DWIDTH 7 0
BBX 5 21 1 -4
BITMAP
38
38
38
30
38
38
38
38
38
38
38
38
38
38
38
38
38
38
F8
F0
F0
ENDCHAR
STARTCHAR k
ENCODING 107
SWIDTH 443 0
DWIDTH 11 0
BBX 9 17 1 0
BITMAP
E000
E000
E000
E000
E700
E700
EF00
FE00
FC00
F800
F800
F800
FC00
FE00
EF00
E780
E300
ENDCHAR
STARTCHAR l
ENCODING 108
SWIDTH 261 0
DWIDTH 6 0
BBX 4 17 1 0
BITMAP
E0
E0
E0
E0
E0
E0
E0
E0
E0
E0
E0
E0
E0
E0
F0
F0
70
ENDCHAR
STARTCHAR m
ENCODING 109
SWIDTH 567 0
DWIDTH 14 0
BBX 12 13 1 0
BITMAP
7FC0
FFE0
FFF0
EE70
EE70
EE70
EE70
EE70
EE70
EE70
EE70
EE70
E660
ENDCHAR
STARTCHAR n
ENCODING 110
SWIDTH 443 0
DWIDTH 11 0
BBX 9 13 1 0
BITMAP
7F00
FF00
FF80
E380
E380
E380
E380
E380
E380
E380
E380
E380
E300
ENDCHAR
STARTCHAR o
ENCODING 111
SWIDTH 443 0
DWIDTH 11 0
BBX 9 13 1 0
BITMAP
7F00
FF00
FF80
E380
E380
E380
E380
E380
E380
E380
FF80
FF00
7E00
ENDCHAR
STARTCHAR p
ENCODING 112
SWIDTH 443 0
DWIDTH 11 0
BBX 9 17 1 -4
BITMAP
7F00
FF00
FF80
E380
E380
E380
E380
E380
E380
E380
FF80
FF00
FE00
E000
E000
E000
E000
ENDCHAR
STARTCHAR q
ENCODING 113
SWIDTH 443 0
DWIDTH 11 0
BBX 9 17 1 -4
BITMAP
7F00
FF00
FF80
E380
E380
E380
E380
E380
E380
E380
FF80
FF80
7F80
0380
0380
0380
0300
ENDCHAR
STARTCHAR r
ENCODING 114
SWIDTH 378 0
DWIDTH 9 0
BBX 7 13 1 0
BITMAP
7E
FE
FE
E0
E0
E0
E0
E0
E0
E0
E0
E0
E0
ENDCHAR
STARTCHAR s
ENCODING 115
SWIDTH 443 0
DWIDTH 11 0
BBX 9 13 1 0
BITMAP
7E00
FF00
FF80
E380
E300
FC00
7F00
1F00
E380
E380
FF80
FF00
7E00
ENDCHAR
STARTCHAR t
ENCODING 116
SWIDTH 378 0
DWIDTH 9 0
BBX 7 17 1 0
BITMAP
E0
E0
E0
E0
FE
FE
FE
E0
E0
E0
E0
E0
E0
E0
FE
FE
7E
ENDCHAR
STARTCHAR u
ENCODING 117
SWIDTH 443 0
DWIDTH 11 0
BBX 9 13 1 0
BITMAP
E300
E380
E380
E380
E380
E380
E380
E380
E380
E380
FF80
FF00
7E00
ENDCHAR
STARTCHAR v
ENCODING 118
SWIDTH 451 0
DWIDTH 11 0
BBX 9 13 1 0
BITMAP
E380
E380
E380
7700
7700
7700
7E00
3E00
3E00
3E00
1C00
1C00
1C00
ENDCHAR
STARTCHAR w
ENCODING 119
SWIDTH 565 0
DWIDTH 14 0
BBX 12 13 1 0
BITMAP
E660
EE70
EFE0
EFE0
7FE0
7FE0
7FE0
7FC0
7FC0
3FC0
3BC0
3BC0
3980
ENDCHAR
STARTCHAR x
ENCODING 120
SWIDTH 416 0
DWIDTH 10 0
BBX 8 13 1 0
BITMAP
E7
E7
FF
7E
7E
3C
3C
3C
7E
7E
7E
E7
E7
ENDCHAR
STARTCHAR y
ENCODING 121
SWIDTH 417 0
DWIDTH 10 0
BBX 8 17 1 -4
BITMAP
E7
E7
E7
77
7E
7E
7E
3E
3C
3C
3C
3C
38
38
F8
F0
E0
ENDCHAR
STARTCHAR z
ENCODING 122
SWIDTH 417 0
DWIDTH 10 0
BBX 8 13 1 0
BITMAP
FF
FF
FF
0E
1E
1C
3C
38
78
70
7F
FF
FF
ENDCHAR
STARTCHAR braceleft
ENCODING 123
SWIDTH 370 0
DWIDTH 9 0
BBX 7 17 1 0
BITMAP
1E
3E
3E
38
38
38
38
F8
F0
F8
38
38
38
38
3E
3E
1E
ENDCHAR
STARTCHAR bar
ENCODING 124
SWIDTH 202 0
DWIDTH 5 0
BBX 3 17 1 0
BITMAP
E0
E0
E0
E0
E0
E0
E0
E0
E0
E0
E0
E0
E0
E0
E0
E0
E0
ENDCHAR
STARTCHAR braceright
ENCODING 125
SWIDTH 370 0
DWIDTH 9 0
BBX 7 17 1 0
BITMAP
F0
F8
F8
38
38
38
38
3E
3E
3E
38
38
38
38
F8
F8
F0
ENDCHAR
STARTCHAR asciitilde
ENCODING 126
SWIDTH 417 0
DWIDTH 10 0
BBX 8 4 1 4
BITMAP
77
7F
FE
EE
ENDCHAR
STARTCHAR uni00A0
ENCODING 160
SWIDTH 230 0
DWIDTH 6 0
BBX 1 1 0 0
BITMAP
00
ENDCHAR
STARTCHAR exclamdown
ENCODING 161
SWIDTH 229 0
DWIDTH 6 0
BBX 4 17 1 0
BITMAP
60
F0
E0
60
00
E0
E0
E0
E0
E0
E0
E0
E0
E0
E0
E0
60
ENDCHAR
STARTCHAR cent
ENCODING 162
SWIDTH 514 0
DWIDTH 12 0
BBX 10 16 1 -1
BITMAP
0C00
0E00
7F80
FFC0
FFC0
EFC0
EEC0
EE00
EE00
EEC0
EFC0
EFC0
FFC0
FFC0
7F80
0E00
ENDCHAR
STARTCHAR sterling
ENCODING 163
SWIDTH 526 0
BBX 11 17 1 0
BITMAP
1F80
3FC0
7FE0
70E0
70E0
70E0
7000
FF00
FF00
FF00
7000
7000
7000
7000
7FC0
7FE0
3FC0
ENDCHAR
STARTCHAR currency
ENCODING 164
SWIDTH 475 0
DWIDTH 11 0
BBX 9 10 1 3
BITMAP
4180
FF80
FF80
7F00
7380
7780
7F00
FF80
FF80
4180
ENDCHAR
STARTCHAR yen
ENCODING 165
SWIDTH 539 0
BBX 11 17 1 0
BITMAP
E0E0
E1E0
71C0
7BC0
3F80
1F00
7FC0
7FC0
7FC0
0E00
7FC0
7FC0
7FC0
0E00
0E00
0E00
0E00
ENDCHAR
STARTCHAR brokenbar
ENCODING 166
SWIDTH 200 0
DWIDTH 5 0
BBX 3 17 1 0
BITMAP
E0
E0
E0
E0
E0
E0
E0
E0
00
E0
E0
E0
E0
E0
E0
E0
E0
ENDCHAR
STARTCHAR section
ENCODING 167
SWIDTH 539 0
BBX 11 21 1 -4
BITMAP
7F80
7FC0
FFE0
E0E0
E0E0
F0E0
FC00
FF80
FFC0
E7E0
E1E0
F8E0
7EE0
3FE0
07E0
E1E0
E0E0
E0E0
FFE0
7FC0
7F80
ENDCHAR
STARTCHAR dieresis
ENCODING 168
SWIDTH 339 0
DWIDTH 8 0
BBX 6 3 1 14
BITMAP
FC
FC
EC
ENDCHAR
STARTCHAR copyright
ENCODING 169
SWIDTH 650 0
DWIDTH 16 0
BBX 14 17 1 0
BITMAP
3FF0
7FF8
FFF8
E01C
E7DC
EFDC
EFDC
EE1C
EE1C
EE1C
EFDC
EFDC
E7DC
E01C
FFFC
7FF8
7FF0
ENDCHAR
STARTCHAR ordfeminine
ENCODING 170
SWIDTH 350 0
DWIDTH 8 0
BBX 6 9 1 7
BITMAP
7C
7C
7C
FC
FC
EC
FC
FC
7C
ENDCHAR
STARTCHAR guillemotleft
ENCODING 171
SWIDTH 552 0
BBX 11 13 1 0
BITMAP
0EE0
1EE0
3DE0
3BC0
7F80
F700
EF00
F700
7F80
3BC0
3DE0
1EE0
0EE0
ENDCHAR
STARTCHAR logicalnot
ENCODING 172
SWIDTH 400 0
DWIDTH 10 0
BBX 8 5 1 0
BITMAP
FE
FF
FF
07
06
ENDCHAR
STARTCHAR uni00AD
ENCODING 173
SWIDTH 575 0
DWIDTH 14 0
BBX 1 1 0 0
BITMAP
00
ENDCHAR
STARTCHAR registered
ENCODING 174
SWIDTH 647 0
DWIDTH 16 0
BBX 14 17 1 0
BITMAP
7FF0
FFF8
FFF8
E01C
EF9C
EF9C
EFDC
EDDC
EFDC
EF9C
EF9C
EFDC
EDDC
E01C
FFF8
FFF8
7FF0
ENDCHAR
STARTCHAR macron
ENCODING 175
SWIDTH 473 0
DWIDTH 11 0
BBX 9 3 1 14
BITMAP
FF80
FF80
FF80
ENDCHAR
STARTCHAR degree
ENCODING 176
SWIDTH 365 0
DWIDTH 9 0
BBX 7 10 1 7
BITMAP
7C
FE
FE
EE
EE
EE
EE
FE
FE
7C
ENDCHAR
STARTCHAR plusminus
ENCODING 177
SWIDTH 399 0
DWIDTH 10 0
BBX 8 12 1 0
BITMAP
18
38
38
FE
FF
FE
38
38
00
FE
FF
FE
ENDCHAR
STARTCHAR uni00B2
ENCODING 178
SWIDTH 369 0
DWIDTH 9 0
BBX 7 9 1 7
BITMAP
FC
FE
FE
1E
7C
F0
FE
FE
7E
ENDCHAR
STARTCHAR uni00B3
ENCODING 179
SWIDTH 365 0
DWIDTH 9 0
BBX 7 9 1 7
BITMAP
FC
FE
FE
FE
FE
FE
FE
FE
FC
ENDCHAR
STARTCHAR acute
ENCODING 180
SWIDTH 232 0
DWIDTH 6 0
BBX 3 4 1 13
BITMAP
60
E0
E0
E0
ENDCHAR
STARTCHAR uni00B5
ENCODING 181
SWIDTH 443 0
DWIDTH 11 0
BBX 9 17 1 -4
BITMAP
E300
E380
E380
E380
E380
E380
E380
E380
E380
E380
FF80
FF00
FE00
E000
E000
E000
E000
ENDCHAR
STARTCHAR paragraph
ENCODING 182
SWIDTH 604 0
DWIDTH 15 0
BBX 13 17 1 0
BITMAP
7FF0
FFF8
FFF8
FBB8
FBB8
FBB8
FBB8
FBB8
FBB8
7BB8
03B8
03B8
03B8
03B8
03B8
03B8
03B0
ENDCHAR
STARTCHAR periodcentered
ENCODING 183
SWIDTH 260 0
DWIDTH 6 0
BBX 4 5 1 6
BITMAP
20
F0
F0
F0
60
ENDCHAR
STARTCHAR cedilla
ENCODING 184
SWIDTH 273 0
DWIDTH 7 0
BBX 5 6 1 -3
BITMAP
40
E0
E0
F0
F8
F0
ENDCHAR
STARTCHAR uni00B9
ENCODING 185
SWIDTH 291 0
DWIDTH 7 0
BBX 5 9 1 7
BITMAP
38
78
F8
F8
F8
38
38
38
38
ENDCHAR
STARTCHAR ordmasculine
ENCODING 186
SWIDTH 367 0
DWIDTH 9 0
BBX 7 9 1 7
BITMAP
7C
FE
FE
EE
EE
EE
FE
FE
7C
ENDCHAR
STARTCHAR guillemotright
ENCODING 187
SWIDTH 550 0
BBX 11 13 1 0
BITMAP
E600
FF00
7780
7BC0
3DC0
1FE0
0EE0
1FE0
3DC0
7BC0
7780
FF00
E600
ENDCHAR
STARTCHAR onequarter
ENCODING 188
SWIDTH 783 0
DWIDTH 19 0
BBX 17 17 1 0
BITMAP
383800
787800
F87000
F8F000
F8E000
39E000
39C000
3BC700
3B9700
3FBF00
077700
0F7700
0E7700
1E7F80
1C7F80
3C7F00
180700
ENDCHAR
STARTCHAR onehalf
ENCODING 189
SWIDTH 785 0
DWIDTH 19 0
BBX 17 17 1 0
BITMAP
383800
787800
F87000
F8F000
F8E000
39E000
39C000
3BFF00
3BBF80
3FBF80
070780
0F1F80
0E3F00
1E3C00
1C3F80
3C3F80
181F80
ENDCHAR
STARTCHAR threequarters
ENCODING 190
SWIDTH 835 0
DWIDTH 20 0
BBX 18 17 1 0
BITMAP
FC1C00
FE1C00
FE3C00
0E3800
FE7800
FE7000
FEF000
FEE380
FFEB80
FDDF80
03FF80
03BB80
07BB80
073FC0
0F3FC0
0E3FC0
0C0380
ENDCHAR
STARTCHAR questiondown
ENCODING 191
SWIDTH 539 0
BBX 11 17 1 0
BITMAP
0E00
0E00
0E00
0400
0000
0E00
0E00
0E00
3E00
7C00
F000
E0E0
E0E0
E0E0
FFE0
7FC0
7F80
ENDCHAR
STARTCHAR Agrave
ENCODING 192
SWIDTH 599 0
DWIDTH 14 0
BBX 12 22 1 0
BITMAP
0E00
0E00
0E00
0600
0000
0700
0F00
0F00
0F80
0F80
1F80
1FC0
1DC0
39C0
39C0
3FE0
7FE0
7FE0
7070
E070
E070
E030
ENDCHAR
STARTCHAR Aacute
ENCODING 193
SWIDTH 599 0
DWIDTH 14 0
BBX 12 22 1 0
BITMAP
0300
0700
0700
0700
0000
0700
0F00
0F00
0F80
0F80
1F80
1FC0
1DC0
39C0
39C0
3FE0
7FE0
7FE0
7070
E070
E070
E030
ENDCHAR
STARTCHAR Acircumflex
ENCODING 194
SWIDTH 598 0
DWIDTH 14 0
BBX 12 22 1 0
BITMAP
0F80
1F80
1FC0
19C0
0000
0700
0F00
0F00
0F80
1F80
1F80
1F80
1DC0
39C0
39C0
3FE0
7FE0
7FE0
7070
E070
E070
E030
ENDCHAR
STARTCHAR Atilde
ENCODING 195
SWIDTH 599 0
DWIDTH 14 0
BBX 12 22 1 0
BITMAP
1DC0
1FC0
3FC0
3B80
0000
0700
0F00
0F00
0F80
0F80
1F80
1FC0
1DC0
39C0
39C0
3FE0
7FE0
7FE0
7070
E070
E070
E030
ENDCHAR
STARTCHAR Adieresis
ENCODING 196
SWIDTH 598 0
DWIDTH 14 0
BBX 12 22 1 0
BITMAP
1980
3DC0
3FC0
1980
0000
0700
0F00
0F00
0F80
1F80
1F80
1F80
1DC0
39C0
39C0
3FE0
7FE0
7FE0
7070
E070
E070
E030
ENDCHAR
STARTCHAR Aring
ENCODING 197
SWIDTH 599 0
DWIDTH 14 0
BBX 12 22 1 0
BITMAP
0F00
0F80
0980
0F00
0600
0700
0F00
0F00
0F80
0F80
1F80
1FC0
1DC0
39C0
39C0
3FE0
7FE0
7FE0
7070
E070
E070
E030
ENDCHAR
STARTCHAR AE
ENCODING 198
SWIDTH 891 0
DWIDTH 21 0
BBX 19 17 1 0
BITMAP
007FE0
007FE0
00FFE0
01F000
01F000
03F000
03F000
077FC0
0F7FE0
0E7FC0
1FF000
3FF000
3FF000
787000
707FE0
E07FE0
E07FE0
ENDCHAR
STARTCHAR Ccedilla
ENCODING 199
SWIDTH 526 0
BBX 11 24 1 -7
BITMAP
7F80
FFC0
FFE0
E0E0
E0E0
E0E0
E000
E000
E000
E000
E000
E0E0
E0E0
E0E0
FFE0
FFC0
7FC0
0E00
0F80
0FC0
07C0
0FC0
0F80
0F80
ENDCHAR
STARTCHAR Egrave
ENCODING 200
SWIDTH 514 0
DWIDTH 12 0
BBX 10 22 1 0
BITMAP
1C00
1C00
0E00
0E00
0000
FFC0
FFC0
FFC0
E000
E000
E000
E000
FF80
FFC0
FF80
E000
E000
E000
E000
FFC0
FFC0
FFC0
ENDCHAR
STARTCHAR Eacute
ENCODING 201
SWIDTH 514 0
DWIDTH 12 0
BBX 10 22 1 0
BITMAP
0E00
0E00
1E00
0C00
0000
FFC0
FFC0
FFC0
E000
E000
E000
E000
FF80
FFC0
FF80
E000
E000
E000
E000
FFC0
FFC0
FFC0
ENDCHAR
STARTCHAR Ecircumflex
ENCODING 202
SWIDTH 514 0
DWIDTH 12 0
BBX 10 22 1 0
BITMAP
1F00
3F00
3F80
3380
0000
FFC0
FFC0
FFC0
E000
E000
E000
E000
FF80
FFC0
FF80
E000
E000
E000
E000
FFC0
FFC0
FFC0
ENDCHAR
STARTCHAR Edieresis
ENCODING 203
SWIDTH 514 0
DWIDTH 12 0
BBX 10 22 1 0
BITMAP
3300
7B80
7F80
3300
0000
FFC0
FFC0
FFC0
E000
E000
E000
E000
FF80
FFC0
FF80
E000
E000
E000
E000
FFC0
FFC0
FFC0
ENDCHAR
STARTCHAR Igrave
ENCODING 204
SWIDTH 232 0
DWIDTH 6 0
BBX 3 22 1 0
BITMAP
E0
E0
E0
60
00
60
60
60
60
60
60
60
60
60
60
60
60
60
60
60
60
60
ENDCHAR
STARTCHAR Iacute
ENCODING 205
SWIDTH 232 0
DWIDTH 6 0
BBX 3 22 1 0
BITMAP
60
E0
E0
E0
00
E0
E0
E0
E0
E0
E0
E0
E0
E0
E0
E0
E0
E0
E0
E0
E0
E0
ENDCHAR
STARTCHAR Icircumflex
ENCODING 206
SWIDTH 381 0
DWIDTH 9 0
BBX 7 22 1 0
BITMAP
7C
7E
FE
EE
00
38
38
38
38
38
38
38
38
38
38
38
38
38
38
38
38
38
ENDCHAR
STARTCHAR Idieresis
ENCODING 207
SWIDTH 404 0
DWIDTH 10 0
BBX 8 22 1 0
BITMAP
66
EF
FF
66
00
18
38
38
38
38
38
38
38
38
38
38
38
38
38
38
38
18
ENDCHAR
STARTCHAR Eth
ENCODING 208
SWIDTH 581 0
DWIDTH 14 0
BBX 12 17 1 0
BITMAP
3FE0
7FE0
7FF0
7070
7070
7070
7070
F870
FC70
F870
7070
7070
7070
7070
7FF0
7FE0
3FC0
ENDCHAR
STARTCHAR Ntilde
ENCODING 209
SWIDTH 539 0
BBX 11 22 1 0
BITMAP
1D80
3FC0
7F80
3700
0000
E0E0
E0E0
F0E0
F0E0
F8E0
FCE0
FCE0
FEE0
EEE0
EFE0
E7E0
E7E0
E3E0
E3E0
E1E0
E0E0
E0E0
ENDCHAR
STARTCHAR Ograve
ENCODING 210
SWIDTH 539 0
BBX 11 22 1 0
BITMAP
0C00
0E00
0E00
0E00
0000
7F80
7FC0
FFE0
E0E0
E0E0
E0E0
E0E0
E0E0
E0E0
E0E0
E0E0
E0E0
E0E0
E0E0
FFE0
7FC0
7F80
ENDCHAR
STARTCHAR Oacute
ENCODING 211
SWIDTH 539 0
BBX 11 22 1 0
BITMAP
0E00
0E00
0E00
0C00
0000
7F80
7FC0
FFE0
E0E0
E0E0
E0E0
E0E0
E0E0
E0E0
E0E0
E0E0
E0E0
E0E0
E0E0
FFE0
7FC0
7F80
ENDCHAR
STARTCHAR Ocircumflex
ENCODING 212
SWIDTH 539 0
BBX 11 22 1 0
BITMAP
1F00
3F00
3F80
3B80
0000
7F80
7FC0
FFE0
E0E0
E0E0
E0E0
E0E0
E0E0
E0E0
E0E0
E0E0
E0E0
E0E0
E0E0
FFE0
7FC0
7F80
ENDCHAR
STARTCHAR Otilde
ENCODING 213
SWIDTH 539 0
BBX 11 22 1 0
BITMAP
1D80
3FC0
7F80
3700
0000
7F80
7FC0
FFE0
E0E0
E0E0
E0E0
E0E0
E0E0
E0E0
E0E0
E0E0
E0E0
E0E0
E0E0
FFE0
7FC0
7F80
ENDCHAR
STARTCHAR Odieresis
ENCODING 214
SWIDTH 539 0
BBX 11 22 1 0
BITMAP
3180
3B80
3B80
3B80
0000
7F80
7FC0
FFE0
E0E0
E0E0
E0E0
E0E0
E0E0
E0E0
E0E0
E0E0
E0E0
E0E0
E0E0
FFE0
7FC0
7F80
ENDCHAR
STARTCHAR multiply
ENCODING 215
SWIDTH 416 0
DWIDTH 10 0
BBX 8 8 1 3
BITMAP
E7
FF
7E
3C
3C
7E
FF
E7
ENDCHAR
STARTCHAR Oslash
ENCODING 216
SWIDTH 577 0
DWIDTH 14 0
BBX 12 20 1 -1
BITMAP
0020
0070
3FF0
7FE0
7FE0
61E0
63E0
63E0
67E0
6760
6F60
6E60
7E60
7C60
7C60
7860
7FE0
7FE0
FFC0
E000
ENDCHAR
STARTCHAR Ugrave
ENCODING 217
SWIDTH 526 0
BBX 11 22 1 0
BITMAP
0C00
0E00
0E00
0E00
0000
E0C0
E0E0
E0E0
E0E0
E0E0
E0E0
E0E0
E0E0
E0E0
E0E0
E0E0
E0E0
E0E0
E0E0
FFE0
FFC0
7F80
ENDCHAR
STARTCHAR Uacute
ENCODING 218
SWIDTH 526 0
BBX 11 22 1 0
BITMAP
0E00
0E00
0E00
0C00
0000
E0C0
E0E0
E0E0
E0E0
E0E0
E0E0
E0E0
E0E0
E0E0
E0E0
E0E0
E0E0
E0E0
E0E0
FFE0
FFC0
7F80
ENDCHAR
STARTCHAR Ucircumflex
ENCODING 219
SWIDTH 526 0
BBX 11 22 1 0
BITMAP
1F00
3F00
3F80
3B80
0000
E0C0
E0E0
E0E0
E0E0
E0E0
E0E0
E0E0
E0E0
E0E0
E0E0
E0E0
E0E0
E0E0
E0E0
FFE0
FFC0
7F80
ENDCHAR
STARTCHAR Udieresis
ENCODING 220
SWIDTH 526 0
BBX 11 22 1 0
BITMAP
3300
7B80
7B80
3380
0000
E0C0
E0E0
E0E0
E0E0
E0E0
E0E0
E0E0
E0E0
E0E0
E0E0
E0E0
E0E0
E0E0
E0E0
FFE0
FFC0
7F80
ENDCHAR
STARTCHAR Yacute
ENCODING 221
SWIDTH 596 0
DWIDTH 14 0
BBX 12 22 1 0
BITMAP
0700
0700
0F00
0600
0000
E030
E070
70F0
78E0
39E0
3FC0
1F80
1F80
0F00
0700
0700
0700
0700
0700
0700
0700
0600
ENDCHAR
STARTCHAR Thorn
ENCODING 222
SWIDTH 526 0
BBX 11 17 1 0
BITMAP
E000
E000
E000
FF80
FFC0
FFE0
E0E0
E0E0
E0E0
E0E0
E0E0
FFE0
FFC0
FF80
E000
E000
E000
ENDCHAR
STARTCHAR germandbls
ENCODING 223
SWIDTH 443 0
DWIDTH 11 0
BBX 9 17 1 0
BITMAP
FE00
FF00
FF00
E700
E700
EF00
EF00
EF00
E380
E380
E380
E380
E380
E380
EF80
EF00
EE00
ENDCHAR
STARTCHAR agrave
ENCODING 224
SWIDTH 443 0
DWIDTH 11 0
BBX 9 18 1 0
BITMAP
1800
1C00
1C00
1C00
0000
3F00
3F00
3F80
0380
0380
7F80
FF80
FF80
E380
E380
FF80
FF00
7E00
ENDCHAR
STARTCHAR aacute
ENCODING 225
SWIDTH 443 0
DWIDTH 11 0
BBX 9 18 1 0
BITMAP
0C00
1E00
1C00
1C00
0000
3F00
3F00
3F80
0380
0380
7F80
FF80
FF80
E380
E380
FF80
FF00
7E00
ENDCHAR
STARTCHAR acircumflex
ENCODING 226
SWIDTH 443 0
DWIDTH 11 0
BBX 9 18 1 0
BITMAP
3E00
3F00
7F00
7700
0000
3F00
3F00
3F80
0380
0380
7F80
FF80
FF80
E380
E380
FF80
FF00
7E00
ENDCHAR
STARTCHAR atilde
ENCODING 227
SWIDTH 443 0
DWIDTH 11 0
BBX 9 18 1 0
BITMAP
3B80
7F80
7F00
6E00
0000
3F00
3F00
3F80
0380
0380
7F80
FF80
FF80
E380
E380
FF80
FF00
7E00
ENDCHAR
STARTCHAR adieresis
ENCODING 228
SWIDTH 443 0
DWIDTH 11 0
BBX 9 18 1 0
BITMAP
2300
7700
7700
7700
0000
3F00
3F00
3F80
0380
0380
7F80
FF80
FF80
E380
E380
FF80
FF00
7E00
ENDCHAR
STARTCHAR aring
ENCODING 229
SWIDTH 443 0
DWIDTH 11 0
BBX 9 18 1 0
BITMAP
1C00
3E00
3600
3E00
1C00
3F00
3F00
3F80
0380
0380
7F80
FF80
FF80
E380
E380
FF80
FF00
7E00
ENDCHAR
STARTCHAR ae
ENCODING 230
SWIDTH 684 0
DWIDTH 16 0
BBX 14 13 1 0
BITMAP
3FF8
3FFC
3FFC
038C
038C
7FFC
FFFC
FFF8
E380
E380
FFF8
FFF8
7FF8
ENDCHAR
STARTCHAR ccedilla
ENCODING 231
SWIDTH 443 0
DWIDTH 11 0
BBX 9 20 1 -7
BITMAP
7F00
FF00
FF80
E380
E380
E000
E000
E100
E380
E380
FF80
FF00
7E00
1E00
1F00
1F80
0380
1F80
1F00
1F00
ENDCHAR
STARTCHAR egrave
ENCODING 232
SWIDTH 443 0
DWIDTH 11 0
BBX 9 18 1 0
BITMAP
1800
1C00
1C00
1C00
0000
7E00
FF00
FF80
E380
E380
FF80
FF00
FE00
E000
E000
FE00
FE00
7E00
ENDCHAR
STARTCHAR eacute
ENCODING 233
SWIDTH 443 0
DWIDTH 11 0
BBX 9 18 1 0
BITMAP
1C00
1C00
1C00
1800
0000
7E00
FF00
FF80
E380
E380
FF80
FF00
FE00
E000
E000
FE00
FE00
7E00
ENDCHAR
STARTCHAR ecircumflex
ENCODING 234
SWIDTH 443 0
DWIDTH 11 0
BBX 9 18 1 0
BITMAP
3E00
7E00
7F00
7700
0000
7E00
FF00
FF80
E380
E380
FF80
FF00
FE00
E000
E000
FE00
FE00
7E00
ENDCHAR
STARTCHAR edieresis
ENCODING 235
SWIDTH 443 0
DWIDTH 11 0
BBX 9 18 1 0
BITMAP
6600
7700
F700
6700
0000
7E00
FF00
FF80
E380
E380
FF80
FF00
FE00
E000
E000
FE00
FE00
7E00
ENDCHAR
STARTCHAR igrave
ENCODING 236
SWIDTH 232 0
DWIDTH 6 0
BBX 3 18 1 0
BITMAP
E0
E0
E0
60
00
60
60
60
60
60
60
60
60
60
60
60
60
60
ENDCHAR
STARTCHAR iacute
ENCODING 237
SWIDTH 232 0
DWIDTH 6 0
BBX 3 18 1 0
BITMAP
60
E0
E0
E0
00
E0
E0
E0
E0
E0
E0
E0
E0
E0
E0
E0
E0
E0
ENDCHAR
STARTCHAR icircumflex
ENCODING 238
SWIDTH 380 0
DWIDTH 9 0
BBX 7 18 1 0
BITMAP
7C
7E
FE
EE
00
38
38
38
38
38
38
38
38
38
38
38
38
38
ENDCHAR
STARTCHAR idieresis
ENCODING 239
SWIDTH 401 0
DWIDTH 10 0
BBX 8 18 1 0
BITMAP
66
EF
FF
66
00
18
38
38
38
38
38
38
38
38
38
38
38
18
ENDCHAR
STARTCHAR eth
ENCODING 240
SWIDTH 409 0
DWIDTH 10 0
BBX 8 17 1 0
BITMAP
30
78
FF
FF
FF
07
3F
7F
FF
E7
E7
E7
E7
E7
FF
7E
3C
ENDCHAR
STARTCHAR ntilde
ENCODING 241
SWIDTH 443 0
DWIDTH 11 0
BBX 9 18 1 0
BITMAP
3B80
7F80
7F00
6E00
0000
7F00
FF00
FF80
E380
E380
E380
E380
E380
E380
E380
E380
E380
E300
ENDCHAR
STARTCHAR ograve
ENCODING 242
SWIDTH 443 0
DWIDTH 11 0
BBX 9 18 1 0
BITMAP
3800
3800
1C00
1C00
0000
7F00
FF00
FF80
E380
E380
E380
E380
E380
E380
E380
FF80
FF00
7E00
ENDCHAR
STARTCHAR oacute
ENCODING 243
SWIDTH 443 0
DWIDTH 11 0
BBX 9 18 1 0
BITMAP
1C00
1C00
3C00
1800
0000
7F00
FF00
FF80
E380
E380
E380
E380
E380
E380
E380
FF80
FF00
7E00
ENDCHAR
STARTCHAR ocircumflex
ENCODING 244
SWIDTH 443 0
DWIDTH 11 0
BBX 9 18 1 0
BITMAP
3E00
7E00
7F00
7700
0000
7F00
FF00
FF80
E380
E380
E380
E380
E380
E380
E380
FF80
FF00
7E00
ENDCHAR
STARTCHAR otilde
ENCODING 245
SWIDTH 443 0
DWIDTH 11 0
BBX 9 18 1 0
BITMAP
7B00
7F00
FF00
EE00
0000
7F00
FF00
FF80
E380
E380
E380
E380
E380
E380
E380
FF80
FF00
7E00
ENDCHAR
STARTCHAR odieresis
ENCODING 246
SWIDTH 443 0
DWIDTH 11 0
BBX 9 18 1 0
BITMAP
6600
7700
F700
6700
0000
7F00
FF00
FF80
E380
E380
E380
E380
E380
E380
E380
FF80
FF00
7E00
ENDCHAR
STARTCHAR divide
ENCODING 247
SWIDTH 443 0
DWIDTH 11 0
BBX 9 13 1 0
BITMAP
1C00
3C00
3C00
1C00
0800
FF00
FF80
FF00
0000
1C00
3C00
3C00
1C00
ENDCHAR
STARTCHAR oslash
ENCODING 248
SWIDTH 492 0
DWIDTH 12 0
BBX 10 16 1 -1
BITMAP
0080
01C0
3FC0
7F80
7F80
7780
7F80
7F80
7F80
7D80
7D80
7980
7F80
7F80
FF00
E000
ENDCHAR
STARTCHAR ugrave
ENCODING 249
SWIDTH 443 0
DWIDTH 11 0
BBX 9 18 1 0
BITMAP
1800
1C00
1C00
1C00
0000
E300
E380
E380
E380
E380
E380
E380
E380
E380
E380
FF80
FF00
7E00
ENDCHAR
STARTCHAR uacute
ENCODING 250
SWIDTH 443 0
DWIDTH 11 0
BBX 9 18 1 0
BITMAP
1C00
1C00
1C00
1800
0000
E300
E380
E380
E380
E380
E380
E380
E380
E380
E380
FF80
FF00
7E00
ENDCHAR
STARTCHAR ucircumflex
ENCODING 251
SWIDTH 443 0
DWIDTH 11 0
BBX 9 18 1 0
BITMAP
3E00
7E00
7F00
7700
0000
E300
E380
E380
E380
E380
E380
E380
E380
E380
E380
FF80
FF00
7E00
ENDCHAR
STARTCHAR udieresis
ENCODING 252
SWIDTH 443 0
DWIDTH 11 0
BBX 9 18 1 0
BITMAP
6600
7700
F700
6700
0000
E300
E380
E380
E380
E380
E380
E380
E380
E380
E380
FF80
FF00
7E00
ENDCHAR
STARTCHAR yacute
ENCODING 253
SWIDTH 417 0
DWIDTH 10 0
BBX 8 22 1 -4
BITMAP
18
38
38
38
00
E7
E7
E7
77
7E
7E
7E
3E
3C
3C
3C
3C
38
38
F8
F0
E0
ENDCHAR
STARTCHAR thorn
ENCODING 254
SWIDTH 443 0
DWIDTH 11 0
BBX 9 21 1 -4
BITMAP
E000
E000
E000
E000
FF00
FF00
FF80
E380
E380
E380
E380
E380
E380
E380
FF80
FF00
FE00
E000
E000
E000
E000
ENDCHAR
STARTCHAR ydieresis
ENCODING 255
SWIDTH 416 0
DWIDTH 10 0
BBX 8 22 1 -4
BITMAP
66
FF
FF
66
00
E7
E7
E7
FE
7E
7E
7E
3C
3C
3C
3C
38
38
38
F8
F0
E0
ENDCHAR
STARTCHAR dotlessi
ENCODING 305
SWIDTH 198 0
DWIDTH 5 0
BBX 3 13 1 0
BITMAP
E0
E0
E0
E0
E0
E0
E0
E0
E0
E0
E0
E0
E0
ENDCHAR
STARTCHAR Lslash
ENCODING 321
SWIDTH 570 0
DWIDTH 14 0
BBX 12 17 1 0
BITMAP
7000
7000
7000
7000
7000
7000
7800
7800
F800
F000
7000
7000
7000
7000
7FE0
7FF0
7FF0
ENDCHAR
STARTCHAR lslash
ENCODING 322
SWIDTH 315 0
DWIDTH 8 0
BBX 6 17 1 0
BITMAP
70
70
70
70
70
70
78
78
F8
F0
70
70
70
70
78
3C
38
ENDCHAR
STARTCHAR OE
ENCODING 338
SWIDTH 854 0
DWIDTH 21 0
BBX 19 17 1 0
BITMAP
7FFFC0
7FFFE0
FFFFC0
E0E000
E0E000
E0E000
E0E000
E0FF80
E0FFC0
E0FF80
E0E000
E0E000
E0E000
E0E000
FFFFC0
7FFFE0
7FFFC0
ENDCHAR
STARTCHAR oe
ENCODING 339
SWIDTH 685 0
DWIDTH 16 0
BBX 14 13 1 0
BITMAP
7FF8
FFFC
FFFC
E38C
E38C
E3FC
E3FC
E3F8
E380
E380
FFF8
FFF8
7FF8
ENDCHAR
STARTCHAR Scaron
ENCODING 352
SWIDTH 539 0
BBX 11 22 1 0
BITMAP
3B80
3F80
3F00
1F00
0000
7F80
7FC0
FFE0
E0E0
E0E0
E0E0
F000
7E00
3F80
0FC0
03E0
E0E0
E0E0
E0E0
FFE0
7FC0
7F80
ENDCHAR
STARTCHAR scaron
ENCODING 353
SWIDTH 443 0
DWIDTH 11 0
BBX 9 18 1 0
BITMAP
7700
7F00
7E00
3E00
0000
7E00
FF00
FF80
E380
E300
FC00
7F00
1F00
E380
E380
FF80
FF00
7E00
ENDCHAR
STARTCHAR Ydieresis
ENCODING 376
SWIDTH 597 0
DWIDTH 14 0
BBX 12 22 1 0
BITMAP
1980
3DC0
3FC0
1980
0000
E030
E070
70F0
78E0
39E0
3FC0
1F80
0F80
0F00
0700
0700
0700
0700
0700
0700
0700
0600
ENDCHAR
STARTCHAR Zcaron
ENCODING 381
SWIDTH 526 0
BBX 11 22 1 0
BITMAP
3B80
3F80
3F00
1F00
0000
FFC0
FFE0
FFC0
03C0
0380
0780
0700
0E00
0E00
1C00
1C00
3800
3800
7000
FFC0
FFC0
FFC0
ENDCHAR
STARTCHAR zcaron
ENCODING 382
SWIDTH 414 0
DWIDTH 10 0
BBX 8 18 1 0
BITMAP
66
FF
7E
3C
00
FF
FF
FE
0E
1E
1C
3C
38
78
70
FF
FF
FF
ENDCHAR
STARTCHAR uni01C0
ENCODING 448
SWIDTH 581 0
DWIDTH 14 0
BBX 2 13 6 2
BITMAP
C0
C0
C0
C0
C0
C0
C0
C0
C0
C0
C0
C0
C0
ENDCHAR
STARTCHAR circumflex
ENCODING 710
SWIDTH 380 0
DWIDTH 9 0
BBX 5 3 1 14
BITMAP
78
F8
D8
ENDCHAR
STARTCHAR ring
ENCODING 730
SWIDTH 293 0
DWIDTH 7 0
BBX 4 4 1 14
BITMAP
60
F0
B0
E0
ENDCHAR
STARTCHAR tilde
ENCODING 732
SWIDTH 470 0
DWIDTH 11 0
BBX 7 2 1 11
BITMAP
FE
FE
ENDCHAR
STARTCHAR gravecomb
ENCODING 768
SWIDTH 0 0
DWIDTH 0 0
BBX 4 4 1 13
BITMAP
E0
E0
F0
60
ENDCHAR
STARTCHAR acutecomb
ENCODING 769
SWIDTH 0 0
DWIDTH 0 0
BBX 3 4 1 13
BITMAP
60
E0
E0
E0
ENDCHAR
STARTCHAR uni0302
ENCODING 770
SWIDTH 0 0
DWIDTH 0 0
BBX 7 4 1 18
BITMAP
7C
7E
FE
EE
ENDCHAR
STARTCHAR tildecomb
ENCODING 771
SWIDTH 0 0
DWIDTH 0 0
BBX 9 3 1 14
BITMAP
FF80
FF80
FF80
ENDCHAR
STARTCHAR uni0305
ENCODING 773
SWIDTH 0 0
DWIDTH 0 0
BBX 8 3 1 18
BITMAP
FE
FF
FE
ENDCHAR
STARTCHAR uni0306
ENCODING 774
SWIDTH 0 0
DWIDTH 0 0
BBX 7 4 1 18
BITMAP
EE
FE
7E
7C
ENDCHAR
STARTCHAR uni0307
ENCODING 775
SWIDTH 0 0
DWIDTH 0 0
BBX 4 4 1 13
BITMAP
60
E0
F0
60
ENDCHAR
STARTCHAR uni0308
ENCODING 776
SWIDTH 0 0
DWIDTH 0 0
BBX 8 4 1 13
BITMAP
66
EF
FF
66
ENDCHAR
STARTCHAR uni030A
ENCODING 778
SWIDTH 0 0
DWIDTH 0 0
BBX 5 5 1 18
BITMAP
70
F8
D8
F8
70
ENDCHAR
STARTCHAR uni030B
ENCODING 779
SWIDTH 0 0
DWIDTH 0 0
BBX 7 4 1 13
BITMAP
6E
EE
FE
EC
ENDCHAR
STARTCHAR uni030C
ENCODING 780
SWIDTH 0 0
DWIDTH 0 0
BBX 8 4 1 18
BITMAP
E7
FF
FF
7E
ENDCHAR
STARTCHAR uni0327
ENCODING 807
SWIDTH 0 0
DWIDTH 0 0
BBX 4 5 1 0
BITMAP
E0
E0
70
70
30
ENDCHAR
STARTCHAR uni0328
ENCODING 808
SWIDTH 0 0
DWIDTH 0 0
BBX 6 9 1 -7
BITMAP
E0
E0
E0
F8
FC
7C
FC
FC
F8
ENDCHAR
STARTCHAR uni0332
ENCODING 818
SWIDTH 0 0
DWIDTH 0 0
BBX 9 3 1 0
BITMAP
FF80
FF80
FF80
ENDCHAR
STARTCHAR uni0336
ENCODING 822
SWIDTH 0 0
DWIDTH 0 0
BBX 9 3 1 7
BITMAP
FF80
FF80
FF80
ENDCHAR
STARTCHAR uni2002
ENCODING 8194
SWIDTH 575 0
DWIDTH 14 0
BBX 1 1 0 0
BITMAP
00
ENDCHAR
STARTCHAR uni2003
ENCODING 8195
SWIDTH 581 0
DWIDTH 14 0
BBX 1 1 0 0
BITMAP
00
ENDCHAR
STARTCHAR uni2010
ENCODING 8208
BBX 11 3 1 7
BITMAP
7FE0
FFE0
7FE0
ENDCHAR
STARTCHAR uni2011
ENCODING 8209
SWIDTH 477 0
DWIDTH 11 0
BBX 9 3 1 7
BITMAP
FF80
FF80
FF80
ENDCHAR
STARTCHAR figuredash
ENCODING 8210
SWIDTH 398 0
DWIDTH 10 0
BBX 8 3 1 7
BITMAP
FE
FF
FE
ENDCHAR
STARTCHAR endash
ENCODING 8211
SWIDTH 399 0
DWIDTH 10 0
BBX 8 3 1 7
BITMAP
FE
FF
FE
ENDCHAR
STARTCHAR emdash
ENCODING 8212
SWIDTH 472 0
DWIDTH 11 0
BBX 9 3 1 7
BITMAP
FF80
FF80
FF80
ENDCHAR
STARTCHAR uni2015
ENCODING 8213
BBX 11 3 1 7
BITMAP
7FE0
FFE0
7FE0
ENDCHAR
STARTCHAR uni2016
ENCODING 8214
SWIDTH 581 0
DWIDTH 14 0
BBX 6 17 4 0
BITMAP
CC
FC
FC
FC
FC
FC
FC
FC
FC
FC
FC
FC
FC
FC
FC
FC
CC
ENDCHAR
STARTCHAR quoteleft
ENCODING 8216
SWIDTH 230 0
DWIDTH 6 0
BBX 4 5 1 12
BITMAP
60
E0
E0
F0
E0
ENDCHAR
STARTCHAR quoteright
ENCODING 8217
SWIDTH 230 0
DWIDTH 6 0
BBX 4 5 1 12
BITMAP
60
F0
F0
E0
E0
ENDCHAR
STARTCHAR quotesinglbase
ENCODING 8218
SWIDTH 225 0
DWIDTH 5 0
BBX 3 4 1 -1
BITMAP
60
E0
E0
E0
ENDCHAR
STARTCHAR quotedblleft
ENCODING 8220
SWIDTH 396 0
DWIDTH 10 0
BBX 8 5 1 12
BITMAP
66
EE
EE
FF
EE
ENDCHAR
STARTCHAR quotedblright
ENCODING 8221
SWIDTH 397 0
DWIDTH 10 0
BBX 8 5 1 12
BITMAP
66
FF
FF
EE
EE
ENDCHAR
STARTCHAR quotedblbase
ENCODING 8222
SWIDTH 370 0
DWIDTH 9 0
BBX 7 4 1 0
BITMAP
6E
EE
FE
EC
ENDCHAR
STARTCHAR dagger
ENCODING 8224
SWIDTH 465 0
DWIDTH 11 0
BBX 9 17 1 0
BITMAP
1C00
1C00
1C00
1C00
FF80
FF80
FF80
1C00
1C00
1C00
1C00
1C00
1C00
1C00
1C00
1C00
1C00
ENDCHAR
STARTCHAR daggerdbl
ENCODING 8225
SWIDTH 340 0
DWIDTH 8 0
BBX 6 17 1 0
BITMAP
30
38
38
38
38
FC
FC
FC
38
FC
FC
FC
38
38
38
38
30
ENDCHAR
STARTCHAR bullet
ENCODING 8226
SWIDTH 347 0
DWIDTH 8 0
BBX 6 7 1 5
BITMAP
10
7C
FC
FC
FC
FC
78
ENDCHAR
STARTCHAR twodotenleader
ENCODING 8229
SWIDTH 581 0
DWIDTH 14 0
BBX 6 3 4 0
BITMAP
CC
FC
CC
ENDCHAR
STARTCHAR ellipsis
ENCODING 8230
SWIDTH 592 0
DWIDTH 14 0
BBX 12 4 1 7
BITMAP
6620
EF70
FF70
6670
ENDCHAR
STARTCHAR perthousand
ENCODING 8240
SWIDTH 1002 0
DWIDTH 24 0
BBX 22 17 1 0
BITMAP
783800
FC7800
FC7000
ECF000
ECE000
FDE000
FDC000
7BC000
038000
07BC78
077EFC
0F7EFC
0E7EDC
1E7EDC
1C7EFC
3C7EFC
183C78
ENDCHAR
STARTCHAR minute
ENCODING 8242
SWIDTH 232 0
DWIDTH 6 0
BBX 4 4 1 13
BITMAP
60
F0
E0
E0
ENDCHAR
STARTCHAR second
ENCODING 8243
SWIDTH 373 0
DWIDTH 9 0
BBX 7 4 1 13
BITMAP
6E
EE
FE
EC
ENDCHAR
STARTCHAR guilsinglleft
ENCODING 8249
SWIDTH 358 0
DWIDTH 9 0
BBX 7 10 1 0
BITMAP
1E
3C
78
F8
F0
F0
78
3C
1E
0C
ENDCHAR
STARTCHAR guilsinglright
ENCODING 8250
SWIDTH 359 0
DWIDTH 9 0
BBX 7 10 1 0
BITMAP
E0
F0
78
3C
1E
1E
3C
78
F0
E0
ENDCHAR
STARTCHAR uni203B
ENCODING 8251
SWIDTH 504 0
DWIDTH 12 0
BBX 10 17 1 0
BITMAP
C0C0
EDC0
6D80
7F80
3300
3F00
1E00
FEC0
EDC0
FEC0
1E00
3F00
3300
7F80
6D80
EDC0
C0C0
ENDCHAR
STARTCHAR uni203E
ENCODING 8254
SWIDTH 581 0
DWIDTH 14 0
BBX 10 3 2 14
BITMAP
FF80
FFC0
FF80
ENDCHAR
STARTCHAR fraction
ENCODING 8260
SWIDTH 514 0
DWIDTH 12 0
BBX 10 17 1 0
BITMAP
00C0
01C0
01C0
0380
0380
0700
0700
0E00
0E00
1C00
1C00
3800
7800
7000
F000
E000
E000
ENDCHAR
STARTCHAR uni2070
ENCODING 8304
SWIDTH 350 0
DWIDTH 8 0
BBX 6 9 1 7
BITMAP
78
FC
FC
EC
EC
EC
FC
FC
78
ENDCHAR
STARTCHAR uni2074
ENCODING 8308
SWIDTH 423 0
DWIDTH 10 0
BBX 8 9 1 7
BITMAP
0E
2E
7E
FE
EE
FF
FF
FF
0E
ENDCHAR
STARTCHAR Euro
ENCODING 8364
SWIDTH 581 0
DWIDTH 14 0
BBX 12 17 1 0
BITMAP
1FE0
3FF0
7FF0
7070
7070
FF00
FF00
FF00
7000
FC00
FC00
FC00
7070
7070
7FF0
3FE0
1FC0
ENDCHAR
STARTCHAR uni20DD
ENCODING 8413
SWIDTH 758 0
DWIDTH 18 0
BBX 16 16 1 0
BITMAP
07E0
1FF8
3FFC
781E
700E
E007
E007
E007
E007
E007
E007
700E
781E
3FFC
1FF8
07E0
ENDCHAR
STARTCHAR uni2103
ENCODING 8451
SWIDTH 733 0
DWIDTH 18 0
BBX 16 16 1 0
BITMAP
73FC
F7FE
D7FF
F707
6706
0700
0700
0700
0700
0700
0700
0706
0707
07FF
07FE
03FC
ENDCHAR
STARTCHAR uni2109
ENCODING 8457
SWIDTH 725 0
DWIDTH 17 0
BBX 15 16 1 1
BITMAP
67FE
F7FE
D7FE
F700
7700
0700
0700
07FC
07FE
07FC
0700
0700
0700
0700
0700
0700
ENDCHAR
STARTCHAR trademark
ENCODING 8482
SWIDTH 739 0
DWIDTH 18 0
BBX 16 6 1 10
BITMAP
F9FE
FFFF
FFFF
73B7
73B7
73B7
ENDCHAR
STARTCHAR uni2126
ENCODING 8486
SWIDTH 581 0
DWIDTH 14 0
BBX 12 16 1 0
BITMAP
7FE0
FFF0
FFF0
E070
E070
E070
E070
E070
E070
E070
FFF0
7FE0
1F80
FFF0
FFF0
FDF0
ENDCHAR
STARTCHAR uni217F
ENCODING 8575
SWIDTH 599 0
DWIDTH 14 0
BBX 12 13 1 0
BITMAP
3FE0
7FF0
FFF0
E770
E770
E770
E770
E770
E770
E770
E770
E770
6670
ENDCHAR
STARTCHAR arrowleft
ENCODING 8592
SWIDTH 497 0
DWIDTH 12 0
BBX 10 7 1 5
BITMAP
1000
3000
7FC0
FFC0
FFC0
7000
3000
ENDCHAR
STARTCHAR arrowup
ENCODING 8593
SWIDTH 350 0
DWIDTH 8 0
BBX 6 10 1 3
BITMAP
30
78
FC
FC
78
38
38
38
38
30
ENDCHAR
STARTCHAR arrowright
ENCODING 8594
SWIDTH 499 0
DWIDTH 12 0
BBX 10 7 1 5
BITMAP
0200
0300
FF80
FFC0
FFC0
0380
0300
ENDCHAR
STARTCHAR arrowdown
ENCODING 8595
SWIDTH 350 0
DWIDTH 8 0
BBX 6 10 1 3
BITMAP
30
38
38
38
38
78
FC
FC
78
30
ENDCHAR
STARTCHAR arrowboth
ENCODING 8596
SWIDTH 581 0
DWIDTH 14 0
BBX 12 7 1 5
BITMAP
1080
30C0
7FE0
FFF0
FFF0
70E0
30C0
ENDCHAR
STARTCHAR arrowupdn
ENCODING 8597
SWIDTH 350 0
DWIDTH 8 0
BBX 6 12 1 2
BITMAP
30
78
FC
FC
38
38
38
78
FC
FC
78
30
ENDCHAR
STARTCHAR arrowdblright
ENCODING 8658
SWIDTH 499 0
DWIDTH 12 0
BBX 10 7 1 5
BITMAP
0200
0300
FF80
FFC0
FFC0
0380
0300
ENDCHAR
STARTCHAR arrowdblboth
ENCODING 8660
SWIDTH 581 0
DWIDTH 14 0
BBX 12 7 1 5
BITMAP
1080
30C0
7FE0
FFF0
FFF0
70E0
30C0
ENDCHAR
STARTCHAR universal
ENCODING 8704
SWIDTH 599 0
DWIDTH 14 0
BBX 12 16 1 1
BITMAP
4020
E070
E070
7070
7FF0
7FE0
3FE0
39C0
39C0
1DC0
1F80
1F80
0F80
0F00
0F00
0700
ENDCHAR
STARTCHAR partialdiff
ENCODING 8706
SWIDTH 443 0
DWIDTH 11 0
BBX 8 16 1 0
BITMAP
38
3C
1E
0F
07
1F
7F
7F
E7
E7
E7
E7
E7
7F
7E
3C
ENDCHAR
STARTCHAR existential
ENCODING 8707
SWIDTH 465 0
DWIDTH 11 0
BBX 9 16 1 0
BITMAP
FE00
FF80
FF80
0380
0380
0380
0380
FF80
FF80
FF80
0380
0380
0380
FF80
FF80
FF00
ENDCHAR
STARTCHAR gradient
ENCODING 8711
SWIDTH 846 0
DWIDTH 20 0
BBX 18 16 1 0
BITMAP
FFFFC0
FFFFC0
7FFFC0
700380
380780
3C0700
1C0F00
1E0E00
0E1C00
073C00
073800
03F800
03F000
01F000
01E000
00C000
ENDCHAR
STARTCHAR minus
ENCODING 8722
SWIDTH 478 0
DWIDTH 11 0
BBX 9 3 1 5
BITMAP
FF80
FF80
FF80
ENDCHAR
STARTCHAR uni2215
ENCODING 8725
SWIDTH 514 0
DWIDTH 12 0
BBX 10 16 1 0
BITMAP
00C0
01C0
01C0
0380
0780
0700
0F00
0E00
1E00
1C00
3800
3800
7000
7000
E000
E000
ENDCHAR
STARTCHAR radical
ENCODING 8730
SWIDTH 635 0
DWIDTH 15 0
BBX 13 16 1 1
BITMAP
0078
00F8
00F8
00E0
01C0
01C0
01C0
0380
F380
F700
FF00
3F00
1E00
1E00
1E00
0C00
ENDCHAR
STARTCHAR proportional
ENCODING 8733
SWIDTH 443 0
DWIDTH 11 0
BBX 8 8 1 4
BITMAP
7B
FF
FF
CE
3B
FF
FF
CE
ENDCHAR
STARTCHAR infinity
ENCODING 8734
SWIDTH 682 0
DWIDTH 16 0
BBX 14 8 1 4
BITMAP
3870
7EF8
FFFC
E7DC
E7DC
FFFC
7FFC
3C70
ENDCHAR
STARTCHAR uni2225
ENCODING 8741
SWIDTH 581 0
DWIDTH 14 0
BBX 8 13 3 2
BITMAP
42
E7
E7
E7
E7
E7
E7
E7
E7
E7
E7
E7
E7
ENDCHAR
STARTCHAR logicaland
ENCODING 8743
SWIDTH 600 0
DWIDTH 14 0
BBX 12 16 1 0
BITMAP
0700
0F00
0F00
0F80
1F80
1F80
1DC0
39C0
39C0
38E0
70E0
70E0
7070
E070
E070
E030
ENDCHAR
STARTCHAR logicalor
ENCODING 8744
SWIDTH 599 0
DWIDTH 14 0
BBX 12 16 1 0
BITMAP
E030
E070
E070
7070
70E0
70E0
38E0
39C0
39C0
1DC0
1F80
1F80
0F80
0F00
0F00
0700
ENDCHAR
STARTCHAR intersection
ENCODING 8745
SWIDTH 526 0
BBX 11 16 1 0
BITMAP
3F80
7FC0
FFE0
E0E0
E0E0
E0E0
E0E0
E0E0
E0E0
E0E0
E0E0
E0E0
E0E0
E0E0
E0E0
E0E0
ENDCHAR
STARTCHAR union
ENCODING 8746
SWIDTH 526 0
BBX 11 16 1 0
BITMAP
E0C0
E0E0
E0E0
E0E0
E0E0
E0E0
E0E0
E0E0
E0E0
E0E0
E0E0
E0E0
E0E0
FFE0
FFC0
7F80
ENDCHAR
STARTCHAR integral
ENCODING 8747
SWIDTH 350 0
DWIDTH 8 0
BBX 6 16 1 0
BITMAP
1C
3C
3C
38
38
38
38
38
38
38
38
38
38
F8
F8
F0
ENDCHAR
STARTCHAR similar
ENCODING 8764
SWIDTH 478 0
DWIDTH 11 0
BBX 9 5 1 6
BITMAP
1000
F880
FF80
FF80
0700
ENDCHAR
STARTCHAR uni223D
ENCODING 8765
SWIDTH 477 0
DWIDTH 11 0
BBX 9 5 1 6
BITMAP
0200
CF80
FF80
FD80
7800
ENDCHAR
STARTCHAR uni2252
ENCODING 8786
SWIDTH 443 0
DWIDTH 11 0
BBX 9 16 1 -1
BITMAP
F000
F000
F000
6000
0000
FF80
FF80
FF00
FF00
FF80
FF80
0000
0700
0F80
0F80
0700
ENDCHAR
STARTCHAR notequal
ENCODING 8800
SWIDTH 598 0
DWIDTH 14 0
BBX 12 13 1 0
BITMAP
0040
00E0
01C0
FFF0
FFF0
FFF0
0700
FFF0
FFF0
FFF0
1C00
3800
3800
ENDCHAR
STARTCHAR equivalence
ENCODING 8801
SWIDTH 399 0
DWIDTH 10 0
BBX 8 7 1 3
BITMAP
FE
FF
FE
00
FE
FF
FE
ENDCHAR
STARTCHAR uni2266
ENCODING 8806
SWIDTH 359 0
DWIDTH 9 0
BBX 7 12 1 0
BITMAP
1C
3C
78
F0
F0
78
3C
1C
08
FC
FE
FC
ENDCHAR
STARTCHAR uni2267
ENCODING 8807
SWIDTH 359 0
DWIDTH 9 0
BBX 7 12 1 0
BITMAP
70
78
3C
3C
1C
3C
78
70
20
FC
FE
FC
ENDCHAR
STARTCHAR uni226A
ENCODING 8810
SWIDTH 672 0
DWIDTH 16 0
BBX 14 16 1 0
BITMAP
039C
07BC
0F78
1EF0
3CE0
39C0
73C0
FF80
F780
7BC0
39C0
3CE0
1EF0
0F78
07BC
039C
ENDCHAR
STARTCHAR uni226B
ENCODING 8811
SWIDTH 673 0
DWIDTH 16 0
BBX 14 16 1 0
BITMAP
E700
F780
7BC0
3DE0
1EF0
0F78
073C
03DC
079C
0738
0F78
1EF0
3DE0
7BC0
F780
E700
ENDCHAR
STARTCHAR uni22A5
ENCODING 8869
SWIDTH 526 0
BBX 11 16 1 0
BITMAP
0E00
0E00
0E00
0E00
0E00
0E00
0E00
0E00
0E00
0E00
0E00
0E00
0E00
FFC0
FFE0
FFC0
ENDCHAR
STARTCHAR uni22EE
ENCODING 8942
SWIDTH 581 0
DWIDTH 14 0
BBX 4 12 5 2
BITMAP
60
F0
F0
40
60
F0
F0
40
60
F0
F0
60
ENDCHAR
STARTCHAR uni22EF
ENCODING 8943
SWIDTH 592 0
DWIDTH 14 0
BBX 12 4 1 6
BITMAP
4220
EF70
FF70
6670
ENDCHAR
STARTCHAR uni2571
ENCODING 9585
SWIDTH 514 0
DWIDTH 12 0
BBX 10 16 1 0
BITMAP
00C0
01C0
01C0
0380
0780
0700
0F00
0E00
1E00
1C00
3800
3800
7000
7000
E000
E000
ENDCHAR
STARTCHAR uni2572
ENCODING 9586
SWIDTH 514 0
DWIDTH 12 0
BBX 10 16 1 0
BITMAP
E000
E000
7000
7000
3800
3800
1C00
1E00
0E00
0F00
0700
0780
0380
01C0
01C0
00C0
ENDCHAR
STARTCHAR uni2573
ENCODING 9587
SWIDTH 514 0
DWIDTH 12 0
BBX 10 16 1 0
BITMAP
E0C0
E1C0
71C0
7380
3F80
3F00
1F00
1E00
1E00
1F00
3F00
3F80
7380
71C0
E1C0
E0C0
ENDCHAR
STARTCHAR filledbox
ENCODING 9632
SWIDTH 757 0
DWIDTH 18 0
BBX 16 16 1 0
BITMAP
FFFF
FFFF
FFFF
FFFF
FFFF
FFFF
FFFF
FFFF
FFFF
FFFF
FFFF
FFFF
FFFF
FFFF
FFFF
FFFF
ENDCHAR
STARTCHAR uni25A1
ENCODING 9633
SWIDTH 757 0
DWIDTH 18 0
BBX 16 16 1 0
BITMAP
FFFF
FFFF
FFFF
E007
E007
E007
E007
E007
E007
E007
E007
E007
E007
FFFF
FFFF
FFFF
ENDCHAR
STARTCHAR triagup
ENCODING 9650
SWIDTH 844 0
DWIDTH 20 0
BBX 18 16 1 0
BITMAP
00C000
00E000
01E000
03F000
03F000
07F800
07FC00
0FFC00
1FFE00
1FFE00
3FFF00
3FFF80
7FFF80
7FFFC0
FFFFC0
FFFFC0
ENDCHAR
STARTCHAR uni25B3
ENCODING 9651
SWIDTH 845 0
DWIDTH 20 0
BBX 18 16 1 0
BITMAP
00C000
00E000
01E000
03F000
03F000
07B800
073C00
0E1C00
0E0E00
1C0E00
3C0700
380780
700380
7FFFC0
FFFFC0
FFFFC0
ENDCHAR
STARTCHAR triagdn
ENCODING 9660
SWIDTH 845 0
DWIDTH 20 0
BBX 18 16 1 0
BITMAP
FFFFC0
FFFFC0
7FFFC0
7FFF80
3FFF80
3FFF00
1FFE00
0FFE00
0FFC00
07FC00
07F800
03F000
03F000
01E000
00E000
00C000
ENDCHAR
STARTCHAR uni25BD
ENCODING 9661
SWIDTH 849 0
DWIDTH 20 0
BBX 18 16 1 0
BITMAP
FFFFC0
FFFFC0
7FFFC0
700380
380780
3C0700
1C0F00
1E0E00
0E1C00
073C00
073800
03F800
03F000
01F000
01E000
00C000
ENDCHAR
STARTCHAR uni25C6
ENCODING 9670
SWIDTH 758 0
DWIDTH 18 0
BBX 16 16 1 0
BITMAP
0180
03C0
07E0
0FF0
1FF8
3FFC
7FFE
FFFF
FFFF
7FFE
3FFC
1FF8
0FF0
07E0
03C0
0180
ENDCHAR
STARTCHAR uni25C7
ENCODING 9671
SWIDTH 757 0
DWIDTH 18 0
BBX 16 16 1 0
BITMAP
0180
03C0
07E0
0FF0
1E78
3C3C
781E
F00F
F00F
781E
3C3C
1E78
0FF0
07E0
03C0
0180
ENDCHAR
STARTCHAR circle
ENCODING 9675
SWIDTH 759 0
DWIDTH 18 0
BBX 16 16 1 0
BITMAP
07E0
1FF8
3FFC
781E
700E
E007
E007
E007
E007
E007
E007
700E
7C1E
3FFC
1FF8
07E0
ENDCHAR
STARTCHAR uni25CE
ENCODING 9678
SWIDTH 759 0
DWIDTH 18 0
BBX 16 16 1 0
BITMAP
07E0
1FF8
3FFC
781E
73CE
E7E7
EFF7
EE77
EE77
EFF7
E7E7
73CE
7C1E
3FFC
1FF8
07E0
ENDCHAR
STARTCHAR uni25CF
ENCODING 9679
SWIDTH 759 0
DWIDTH 18 0
BBX 16 16 1 0
BITMAP
07E0
1FF8
3FFC
7FFE
7FFE
FFFF
FFFF
FFFF
FFFF
FFFF
FFFF
7FFE
7FFE
3FFC
1FF8
07E0
ENDCHAR
STARTCHAR uni25EF
ENCODING 9711
SWIDTH 758 0
DWIDTH 18 0
BBX 16 16 1 0
BITMAP
07E0
1FF8
3FFC
781E
700E
E007
E007
E007
E007
E007
E007
700E
781E
3FFC
1FF8
07E0
ENDCHAR
STARTCHAR uni266F
ENCODING 9839
SWIDTH 561 0
BBX 11 17 1 0
BITMAP
0480
0EC0
0DC0
1DC0
1DC0
1DC0
7FE0
7FE0
7FE0
FFC0
FFE0
FFE0
3F00
7700
7700
7700
7700
ENDCHAR
STARTCHAR uni3000
ENCODING 12288
SWIDTH 1150 0
DWIDTH 28 0
BBX 1 1 0 0
BITMAP
00
ENDCHAR
STARTCHAR uni3001
ENCODING 12289
SWIDTH 526 0
BBX 4 5 1 0
BITMAP
E0
E0
70
70
30
ENDCHAR
STARTCHAR uni3002
ENCODING 12290
SWIDTH 526 0
BBX 5 5 1 0
BITMAP
70
F8
D8
F8
70
ENDCHAR
STARTCHAR uni3007
ENCODING 12295
SWIDTH 758 0
DWIDTH 18 0
BBX 16 16 1 0
BITMAP
07E0
1FF8
3FFC
781E
700E
E007
E007
E007
E007
E007
E007
700E
781E
3FFC
1FF8
07E0
ENDCHAR
STARTCHAR uni3008
ENCODING 12296
SWIDTH 463 0
DWIDTH 11 0
BBX 9 16 1 0
BITMAP
0380
0780
0F00
1E00
3C00
3800
7800
F000
F000
7800
3800
1C00
1E00
0F00
0780
0380
ENDCHAR
STARTCHAR uni3009
ENCODING 12297
SWIDTH 465 0
DWIDTH 11 0
BBX 9 16 1 0
BITMAP
E000
F000
7800
3C00
1E00
0F00
0700
0380
0380
0700
0F00
1E00
3C00
7800
F000
E000
ENDCHAR
STARTCHAR uni300A
ENCODING 12298
SWIDTH 674 0
DWIDTH 16 0
BBX 14 16 1 0
BITMAP
039C
07BC
0F78
1EF0
3CE0
39C0
7BC0
F780
FF80
7BC0
39E0
1CE0
1EF0
0F78
07BC
039C
ENDCHAR
STARTCHAR uni300B
ENCODING 12299
SWIDTH 673 0
DWIDTH 16 0
BBX 14 16 1 0
BITMAP
E700
F780
7BC0
3DE0
1EF0
0F78
073C
03DC
079C
0738
0F78
1EF0
3DE0
7BC0
F780
E700
ENDCHAR
STARTCHAR uni300C
ENCODING 12300
SWIDTH 365 0
DWIDTH 9 0
BBX 7 11 1 5
BITMAP
FC
FE
FE
E0
E0
E0
E0
E0
E0
E0
E0
ENDCHAR
STARTCHAR uni300D
ENCODING 12301
SWIDTH 363 0
DWIDTH 9 0
BBX 7 12 1 0
BITMAP
04
0E
0E
0E
0E
0E
0E
0E
0E
FE
FE
FE
ENDCHAR
STARTCHAR uni300E
ENCODING 12302
SWIDTH 313 0
DWIDTH 8 0
BBX 6 11 1 5
BITMAP
FC
8C
BC
A0
A0
A0
A0
A0
A0
A0
E0
ENDCHAR
STARTCHAR uni300F
ENCODING 12303
SWIDTH 313 0
DWIDTH 8 0
BBX 6 11 1 0
BITMAP
3C
3C
3C
3C
3C
3C
3C
3C
FC
8C
FC
ENDCHAR
STARTCHAR uni3010
ENCODING 12304
SWIDTH 260 0
DWIDTH 6 0
BBX 4 16 1 0
BITMAP
F0
F0
E0
E0
E0
E0
E0
E0
E0
E0
E0
E0
E0
E0
F0
F0
ENDCHAR
STARTCHAR uni3011
ENCODING 12305
SWIDTH 260 0
DWIDTH 6 0
BBX 4 16 1 0
BITMAP
F0
F0
70
70
70
70
70
70
70
70
70
70
70
70
F0
F0
ENDCHAR
STARTCHAR uni3012
ENCODING 12306
SWIDTH 530 0
BBX 11 16 1 1
BITMAP
FFC0
FFE0
FFE0
0000
FFC0
FFE0
FFE0
0E00
0E00
0E00
0E00
0E00
0E00
0E00
0E00
0E00
ENDCHAR
STARTCHAR uni3013
ENCODING 12307
SWIDTH 754 0
DWIDTH 18 0
BBX 16 16 1 0
BITMAP
FFFF
FFFF
FFFF
FFFF
FFFF
FFFF
7FFE
0000
0000
FFFF
FFFF
FFFF
FFFF
FFFF
FFFF
FFFF
ENDCHAR
STARTCHAR uni3014
ENCODING 12308
SWIDTH 300 0
DWIDTH 7 0
BBX 5 16 1 0
BITMAP
78
F8
F8
E0
E0
E0
E0
E0
E0
E0
E0
E0
E0
F8
F8
78
ENDCHAR
STARTCHAR uni3015
ENCODING 12309
SWIDTH 300 0
DWIDTH 7 0
BBX 5 16 1 0
BITMAP
F0
F8
F8
38
38
38
38
38
38
38
38
38
38
F8
F8
F0
ENDCHAR
STARTCHAR uni301C
ENCODING 12316
SWIDTH 478 0
DWIDTH 11 0
BBX 9 5 1 6
BITMAP
1000
F880
FF80
FF80
0700
ENDCHAR
STARTCHAR uni301D
ENCODING 12317
SWIDTH 350 0
DWIDTH 8 0
BBX 7 4 1 12
BITMAP
CC
FC
EE
EE
ENDCHAR
STARTCHAR uni301F
ENCODING 12319
SWIDTH 581 0
DWIDTH 14 0
BBX 7 4 6 0
BITMAP
EC
FE
EE
6E
ENDCHAR
STARTCHAR uni3041
ENCODING 12353
SWIDTH 658 0
DWIDTH 16 0
BBX 14 13 1 0
BITMAP
0400
0E00
7FF0
7FF8
7FF0
0FC0
7FF8
FFFC
FFFC
EFDC
FFDC
FFDC
7F9C
ENDCHAR
STARTCHAR uni3042
ENCODING 12354
SWIDTH 641 0
DWIDTH 15 0
BBX 13 16 1 0
BITMAP
0C00
7FF0
7FF0
7FF0
0DC0
7FF0
FFF8
FFF8
EDD8
EDD8
EDD8
EDD8
EDD8
FFD8
FFD8
7F98
ENDCHAR
STARTCHAR uni3043
ENCODING 12355
SWIDTH 485 0
DWIDTH 12 0
BBX 10 12 1 0
BITMAP
E700
E780
E7C0
E1C0
E1C0
E1C0
E1C0
E1C0
E000
FC00
7E00
3C00
ENDCHAR
STARTCHAR uni3044
ENCODING 12356
SWIDTH 526 0
BBX 11 16 1 0
BITMAP
E380
E3C0
E3C0
E0E0
E0E0
E0E0
E0E0
E0E0
E0E0
E0E0
E000
E000
E000
FC00
7C00
3C00
ENDCHAR
STARTCHAR uni3045
ENCODING 12357
SWIDTH 492 0
DWIDTH 12 0
BBX 10 11 1 1
BITMAP
3F00
3F00
3F00
3F00
7F80
FFC0
E1C0
E1C0
0380
0780
0700
ENDCHAR
STARTCHAR uni3046
ENCODING 12358
SWIDTH 526 0
BBX 11 15 1 1
BITMAP
3F00
3F80
1F00
3F80
7FC0
FFE0
E0E0
E0E0
00E0
01C0
03C0
0380
0700
0F00
0E00
ENDCHAR
STARTCHAR uni3047
ENCODING 12359
SWIDTH 514 0
DWIDTH 12 0
BBX 10 12 1 0
BITMAP
3F00
7F00
3F00
FF80
FF80
FF80
0780
0F80
3F80
FFC0
FBC0
F3C0
ENDCHAR
STARTCHAR uni3048
ENCODING 12360
SWIDTH 526 0
BBX 11 16 1 0
BITMAP
3F00
3F00
3F00
0000
FF80
FF80
FF80
0380
0780
0F00
0F00
1F80
3B80
7BC0
F3E0
E1C0
ENDCHAR
STARTCHAR uni3049
ENCODING 12361
SWIDTH 581 0
DWIDTH 14 0
BBX 12 13 1 0
BITMAP
0800
0C00
7F70
7FF0
7F70
0C00
3FC0
7FE0
FFF0
EC70
FDF0
7DE0
3DC0
ENDCHAR
STARTCHAR uni304A
ENCODING 12362
SWIDTH 566 0
DWIDTH 14 0
BBX 12 16 1 0
BITMAP
1C00
7F60
7F70
7F70
1C70
1C60
1C00
7FC0
FFE0
FFF0
FC70
FC70
FC70
FDF0
FDE0
7DC0
ENDCHAR
STARTCHAR uni304B
ENCODING 12363
SWIDTH 629 0
DWIDTH 15 0
BBX 13 16 1 0
BITMAP
1870
FF70
FFF0
FFB0
3BB8
3BB8
3BB8
73B8
7390
7380
7380
7380
7380
E780
EF80
E700
ENDCHAR
STARTCHAR uni304C
ENCODING 12364
SWIDTH 629 0
DWIDTH 15 0
BBX 13 16 1 0
BITMAP
1C78
FF78
FFF8
FFB0
3BB8
3BB8
3BB8
73B8
7380
7380
7380
7380
7380
E780
EF80
E700
ENDCHAR
STARTCHAR uni304D
ENCODING 12365
SWIDTH 526 0
BBX 11 16 1 0
BITMAP
0E00
FFC0
FFE0
FFC0
0E00
FFC0
FFE0
FFC0
3F00
7F00
FF00
E000
E000
FF80
7F80
3F80
ENDCHAR
STARTCHAR uni304E
ENCODING 12366
SWIDTH 539 0
BBX 12 16 1 0
BITMAP
0EB0
FEB0
FEA0
FFC0
0E00
FFC0
FFE0
FFC0
3F00
7F00
FF00
E000
E000
FF80
7F80
3F80
ENDCHAR
STARTCHAR uni304F
ENCODING 12367
SWIDTH 443 0
DWIDTH 11 0
BBX 9 16 1 0
BITMAP
0380
0780
0F00
1E00
3C00
7800
F000
E000
E000
F000
7800
3C00
1E00
0F00
0780
0380
ENDCHAR
STARTCHAR uni3050
ENCODING 12368
SWIDTH 497 0
DWIDTH 12 0
BBX 10 16 1 0
BITMAP
0380
0780
0F00
1E00
1C00
3F40
7B40
F340
E000
F000
7800
3C00
1E00
0F00
0780
0380
ENDCHAR
STARTCHAR uni3051
ENCODING 12369
BBX 11 16 1 1
BITMAP
0080
01C0
E1C0
EFE0
EFE0
EFE0
E1C0
E1C0
E1C0
E1C0
E1C0
F380
7380
0780
0F00
0E00
ENDCHAR
STARTCHAR uni3052
ENCODING 12370
SWIDTH 624 0
DWIDTH 15 0
BBX 14 16 1 1
BITMAP
01BC
01FC
E1FC
EFC0
EFE0
EFE0
E1C0
E1C0
E1C0
E1C0
E1C0
F380
7380
0780
0F00
0E00
ENDCHAR
STARTCHAR uni3053
ENCODING 12371
SWIDTH 468 0
DWIDTH 11 0
BBX 9 16 1 0
BITMAP
FE00
FF80
FF80
0380
0380
0380
0380
0000
C000
E000
E000
E000
E000
FF80
7F80
3F80
ENDCHAR
STARTCHAR uni3054
ENCODING 12372
SWIDTH 500 0
DWIDTH 12 0
BBX 11 16 1 0
BITMAP
FFE0
FFE0
FFE0
0380
0380
0380
0180
0000
E000
E000
E000
E000
E000
FF80
7F80
3F80
ENDCHAR
STARTCHAR uni3055
ENCODING 12373
SWIDTH 526 0
BBX 11 16 1 0
BITMAP
0E00
FFC0
FFE0
FFC0
0600
0700
3F00
7F00
FF00
E000
E000
E000
E000
FF80
7F80
3F80
ENDCHAR
STARTCHAR uni3056
ENCODING 12374
SWIDTH 539 0
BBX 12 16 1 0
BITMAP
0EF0
FEF0
FFF0
FFC0
0600
0700
3F00
7F00
FF00
E000
E000
E000
E000
FF80
7F80
3F80
ENDCHAR
STARTCHAR uni3057
ENCODING 12375
SWIDTH 498 0
DWIDTH 12 0
BBX 10 16 1 0
BITMAP
E000
E000
E000
E000
E000
E000
E000
E000
E080
E1C0
E1C0
E1C0
E1C0
FFC0
FFC0
7F00
ENDCHAR
STARTCHAR uni3058
ENCODING 12376
SWIDTH 498 0
DWIDTH 12 0
BBX 10 16 1 0
BITMAP
E3C0
E3C0
E3C0
E000
E000
E000
E000
E000
E080
E1C0
E1C0
E1C0
E1C0
FFC0
FF80
7F00
ENDCHAR
STARTCHAR uni3059
ENCODING 12377
SWIDTH 526 0
BBX 11 16 1 1
BITMAP
0100
0380
FFC0
FFE0
FFC0
0F80
3F80
3F80
3B80
3F80
3F80
1F80
0700
0F00
0E00
1C00
ENDCHAR
STARTCHAR uni305A
ENCODING 12378
SWIDTH 592 0
DWIDTH 14 0
BBX 13 16 1 1
BITMAP
03F8
03F8
FFF8
FF80
FFC0
0F80
3F80
3F80
3B80
3F80
3F80
1F80
0700
0F00
0E00
1C00
ENDCHAR
STARTCHAR uni305B
ENCODING 12379
SWIDTH 526 0
BBX 11 16 1 0
BITMAP
3380
FFC0
FFE0
FFC0
7380
7380
7380
7380
7380
7380
7100
7000
7000
3FC0
3FC0
1FC0
ENDCHAR
STARTCHAR uni305C
ENCODING 12380
SWIDTH 526 0
BBX 11 16 1 0
BITMAP
7160
FD60
FD60
FFC0
7380
7380
7380
7380
7380
7380
7000
7000
7000
3FC0
3FC0
1FC0
ENDCHAR
STARTCHAR uni305D
ENCODING 12381
SWIDTH 526 0
BBX 11 16 1 0
BITMAP
3F80
3F80
3F80
0700
FFC0
FFE0
FFC0
3800
3800
7800
7000
7000
7000
7F00
3F80
1F80
ENDCHAR
STARTCHAR uni305E
ENCODING 12382
SWIDTH 526 0
BBX 11 16 1 0
BITMAP
3F80
3F80
3F80
0700
FFC0
FFE0
FFC0
3960
3960
7960
7000
7000
7000
7F00
3F80
1F80
ENDCHAR
STARTCHAR uni305F
ENCODING 12383
SWIDTH 559 0
BBX 11 16 1 0
BITMAP
3000
FF00
FF00
FF00
7000
77C0
77E0
77E0
7060
7060
7600
7700
7700
77E0
77E0
33E0
ENDCHAR
STARTCHAR uni3060
ENCODING 12384
SWIDTH 557 0
BBX 11 16 1 0
BITMAP
71A0
FFA0
FFA0
FF00
7000
77C0
77E0
77E0
7060
7060
7600
7700
7700
77E0
77E0
33E0
ENDCHAR
STARTCHAR uni3061
ENCODING 12385
SWIDTH 526 0
BBX 11 16 1 0
BITMAP
0E00
FFC0
FFE0
FFC0
1C00
1C00
1F80
1FC0
1FC0
00E0
00E0
00E0
00E0
1FE0
1FC0
1F80
ENDCHAR
STARTCHAR uni3062
ENCODING 12386
SWIDTH 546 0
BBX 11 16 1 0
BITMAP
0FE0
FFE0
FFE0
FFC0
1C00
1C00
1F80
1FC0
1FC0
00E0
00E0
00E0
00E0
1FE0
1FC0
1F80
ENDCHAR
STARTCHAR uni3063
ENCODING 12387
SWIDTH 539 0
BBX 11 11 2 0
BITMAP
FF80
FFC0
FFE0
00E0
00E0
00E0
00E0
00E0
3FE0
3FC0
3F80
ENDCHAR
STARTCHAR uni3064
ENCODING 12388
SWIDTH 526 0
BBX 11 15 1 0
BITMAP
FF80
FFC0
FFE0
00E0
00E0
00E0
00E0
00E0
00E0
00E0
00E0
00E0
1FE0
3FC0
1F80
ENDCHAR
STARTCHAR uni3065
ENCODING 12389
SWIDTH 526 0
BBX 11 16 1 0
BITMAP
0160
FD60
FD60
FFE0
00E0
00E0
00E0
00E0
00E0
00E0
00E0
00E0
00E0
1FE0
3FC0
1F80
ENDCHAR
STARTCHAR uni3066
ENCODING 12390
SWIDTH 526 0
BBX 11 16 1 0
BITMAP
FFC0
FFE0
FFE0
03C0
0780
1F00
1E00
3C00
3800
3000
3000
3000
3000
3FC0
3FC0
1FC0
ENDCHAR
STARTCHAR uni3067
ENCODING 12391
SWIDTH 526 0
BBX 11 16 1 0
BITMAP
FFC0
FFE0
FFE0
03C0
0780
1F00
3E00
3D60
3960
3160
3000
3000
3000
3FC0
3FC0
1FC0
ENDCHAR
STARTCHAR uni3068
ENCODING 12392
SWIDTH 524 0
BBX 11 16 1 0
BITMAP
6040
70E0
79E0
3BC0
3FC0
1F00
7C00
7800
E000
E000
E000
E000
E000
FFC0
FFE0
7FC0
ENDCHAR
STARTCHAR uni3069
ENCODING 12393
SWIDTH 526 0
BBX 11 16 1 0
BITMAP
7040
70E0
79E0
3BC0
3FC0
1F00
7C00
7960
E160
E160
E000
E000
E000
FFC0
7FE0
7FC0
ENDCHAR
STARTCHAR uni306A
ENCODING 12394
SWIDTH 598 0
DWIDTH 14 0
BBX 12 16 1 0
BITMAP
3800
FDE0
FDF0
FDF0
7030
73B0
7380
0380
0FE0
3FE0
3FE0
3380
3380
3F80
3F00
1E00
ENDCHAR
STARTCHAR uni306B
ENCODING 12395
SWIDTH 566 0
DWIDTH 14 0
BBX 12 16 1 0
BITMAP
EFC0
EFE0
EFE0
E070
E070
E070
E000
E000
E000
E000
EC00
EE00
EE00
EFE0
EFF0
E7E0
ENDCHAR
STARTCHAR uni306C
ENCODING 12396
SWIDTH 644 0
DWIDTH 15 0
BBX 14 16 1 0
BITMAP
0DC0
7FF0
FFF8
FFF8
FDF8
FDF8
FDF8
FDF8
FDFC
FDFC
FDFC
FDF8
EDF8
FFF8
FFF8
7FF0
ENDCHAR
STARTCHAR uni306D
ENCODING 12397
SWIDTH 667 0
DWIDTH 16 0
BBX 14 16 1 0
BITMAP
3000
F9F0
FBF8
FFF8
3F38
3E38
3C38
3838
38F8
39FC
7BFC
FBB8
FBB8
3BF8
39F8
30F0
ENDCHAR
STARTCHAR uni306E
ENCODING 12398
SWIDTH 560 0
BBX 11 16 1 0
BITMAP
7FC0
FFE0
FFE0
EE60
EE60
EE60
EE60
EE60
EE60
EE60
EE60
EE60
EE60
FE60
7E60
3E60
ENDCHAR
STARTCHAR uni306F
ENCODING 12399
SWIDTH 603 0
DWIDTH 14 0
BBX 12 16 1 0
BITMAP
E0E0
EFF0
EFF0
EFF0
E0E0
E0E0
E0E0
E0E0
E3F0
EFF0
EFF0
EEE0
EEE0
EFE0
EFC0
E780
ENDCHAR
STARTCHAR uni3070
ENCODING 12400
SWIDTH 670 0
DWIDTH 16 0
BBX 15 16 1 0
BITMAP
E0FE
EFFE
EFFE
EFF0
E0E0
E0E0
E0E0
E0E0
E3F0
EFF0
EFF0
EEE0
EEE0
EFE0
EFC0
E780
ENDCHAR
STARTCHAR uni3071
ENCODING 12401
SWIDTH 684 0
DWIDTH 16 0
BBX 15 16 1 0
BITMAP
E0EE
EFFE
EFFE
EFFE
E0E0
E0E0
E0E0
E0E0
E3F0
EFF0
EFF0
EEE0
EEE0
EFE0
EFC0
E780
ENDCHAR
STARTCHAR uni3072
ENCODING 12402
SWIDTH 539 0
BBX 11 16 1 0
BITMAP
FBE0
FBE0
FBE0
71C0
71C0
71C0
E0E0
E0E0
E0E0
E0E0
E0E0
E0E0
E0E0
FFE0
7FC0
3F80
ENDCHAR
STARTCHAR uni3073
ENCODING 12403
SWIDTH 553 0
BBX 12 16 1 0
BITMAP
FAF0
FAF0
FAF0
71C0
71C0
71C0
E0E0
E0E0
E0E0
E0E0
E0E0
E0E0
E0E0
FFE0
7FC0
3F80
ENDCHAR
STARTCHAR uni3074
ENCODING 12404
SWIDTH 539 0
BBX 13 16 1 0
BITMAP
FB70
FBF8
FBF8
71F0
71C0
71C0
E0E0
E0E0
E0E0
E0E0
E0E0
E0E0
E0E0
FFE0
7FC0
3F80
ENDCHAR
STARTCHAR uni3075
ENCODING 12405
SWIDTH 653 0
DWIDTH 16 0
BBX 14 16 1 0
BITMAP
1F80
3F80
1F80
0380
0F00
1F00
1F00
1F80
1FC0
61F8
61F8
E1F8
E1D8
FFDC
FF9C
FF1C
ENDCHAR
STARTCHAR uni3076
ENCODING 12406
SWIDTH 654 0
DWIDTH 16 0
BBX 14 16 1 0
BITMAP
1FE8
3FE8
1FE8
0380
0F00
1F00
1F00
1F80
1FC0
61F8
61F8
E1F8
E1D8
FFDC
FF9C
FF1C
ENDCHAR
STARTCHAR uni3077
ENCODING 12407
SWIDTH 654 0
DWIDTH 16 0
BBX 14 16 1 0
BITMAP
1FB8
3FFC
1FF8
03B8
0F00
1F00
1F00
1F80
1FC0
61F8
61F8
E1F8
E1D8
FFDC
FF9C
FF1C
ENDCHAR
STARTCHAR uni3078
ENCODING 12408
SWIDTH 539 0
BBX 11 15 1 1
BITMAP
FC00
FE00
FF00
E700
E700
E380
E380
E380
E380
E1C0
01C0
01C0
00E0
00E0
00E0
ENDCHAR
STARTCHAR uni3079
ENCODING 12409
SWIDTH 539 0
BBX 11 15 1 1
BITMAP
FDE0
FFE0
FFE0
E700
E700
E380
E380
E380
E380
E1C0
01C0
01C0
00E0
00E0
00E0
ENDCHAR
STARTCHAR uni307A
ENCODING 12410
SWIDTH 539 0
BBX 11 16 1 0
BITMAP
FDC0
FDE0
FDE0
E7C0
E700
E300
E380
E380
E380
E1C0
C1C0
01C0
01C0
00E0
00E0
00E0
ENDCHAR
STARTCHAR uni307B
ENCODING 12411
SWIDTH 603 0
DWIDTH 14 0
BBX 12 16 1 0
BITMAP
EFF0
EFF0
EFF0
E0E0
EFF0
EFF0
EFF0
E0E0
E3F0
EFF0
EFF0
EEE0
EEE0
EFE0
EFC0
E780
ENDCHAR
STARTCHAR uni307C
ENCODING 12412
SWIDTH 634 0
DWIDTH 15 0
BBX 15 16 1 0
BITMAP
EFFE
EFFE
EFFE
E0E0
EFF0
EFF0
EFF0
E0E0
E3F0
EFF0
EFF0
EEE0
EEE0
EFE0
EFC0
E780
ENDCHAR
STARTCHAR uni307D
ENCODING 12413
SWIDTH 631 0
DWIDTH 15 0
BBX 15 17 1 0
BITMAP
001C
EFFE
EFDE
EFFC
E0E0
EFF0
EFF8
EFF0
E0E0
E3F0
EFF8
EFF0
EEE0
EEE0
EFE0
EFC0
E780
ENDCHAR
STARTCHAR uni307E
ENCODING 12414
SWIDTH 526 0
BBX 11 16 1 0
BITMAP
0300
FFC0
FFE0
FFC0
0700
FFC0
FFE0
FFC0
3FC0
7FE0
FFC0
E700
E700
FF00
7F00
3E00
ENDCHAR
STARTCHAR uni307F
ENCODING 12415
SWIDTH 581 0
DWIDTH 14 0
BBX 12 16 1 0
BITMAP
7CC0
7EC0
7EC0
0EC0
0EC0
0EC0
0EC0
3FF0
7FF0
FFF0
EEC0
EEC0
EEC0
FEC0
7EC0
3EC0
ENDCHAR
STARTCHAR uni3080
ENCODING 12416
SWIDTH 581 0
DWIDTH 14 0
BBX 12 16 1 0
BITMAP
0C00
7F70
7FF0
7F70
1C70
7C70
FC70
FC70
FC00
FC70
FC70
7C70
1C70
1FF0
0FE0
07C0
ENDCHAR
STARTCHAR uni3081
ENCODING 12417
SWIDTH 636 0
DWIDTH 15 0
BBX 13 16 1 0
BITMAP
0DC0
7FF0
FFF8
FFF8
FDF8
FDF8
FDF8
FDF8
FDF8
FDF8
FDF8
FDF8
E9F8
FFF8
FFF8
7F98
ENDCHAR
STARTCHAR uni3082
ENCODING 12418
SWIDTH 526 0
BBX 11 16 1 0
BITMAP
3800
FE00
FF00
FE00
3800
3800
FE00
FF00
7E00
38E0
38E0
38E0
38E0
3FE0
3FC0
1F80
ENDCHAR
STARTCHAR uni3083
ENCODING 12419
SWIDTH 597 0
DWIDTH 14 0
BBX 12 13 1 0
BITMAP
2100
7380
FFE0
FFF0
FFF0
3BF0
3B70
3870
39F0
39F0
1DE0
1C00
1C00
ENDCHAR
STARTCHAR uni3084
ENCODING 12420
SWIDTH 581 0
DWIDTH 14 0
BBX 12 16 1 0
BITMAP
7300
FFC0
FFE0
FFF0
3F70
3B70
3870
39F0
39E0
39C0
1800
1C00
1C00
1C00
1C00
1C00
ENDCHAR
STARTCHAR uni3085
ENCODING 12421
SWIDTH 600 0
DWIDTH 14 0
BBX 12 12 1 0
BITMAP
4380
EFE0
FFF0
FFF0
F3F0
E3F0
E3F0
EFF0
FFF0
EFE0
4E00
0E00
ENDCHAR
STARTCHAR uni3086
ENCODING 12422
SWIDTH 588 0
DWIDTH 14 0
BBX 12 16 1 0
BITMAP
4380
E3C0
EFE0
FFF0
FFF0
FBF0
FBF0
F3F0
F3F0
E3F0
EFF0
FFF0
EFE0
EE00
0E00
0E00
ENDCHAR
STARTCHAR uni3087
ENCODING 12423
SWIDTH 539 0
BBX 11 13 2 0
BITMAP
0400
0E00
0FC0
0FE0
0FC0
0E00
3FC0
7FE0
FFC0
EE00
FE00
7E00
3C00
ENDCHAR
STARTCHAR uni3088
ENCODING 12424
SWIDTH 526 0
BBX 11 16 1 0
BITMAP
0600
07C0
07E0
07C0
0700
0700
0700
0700
3FC0
7FE0
FFC0
E700
E700
FE00
7E00
3C00
ENDCHAR
STARTCHAR uni3089
ENCODING 12425
SWIDTH 500 0
DWIDTH 12 0
BBX 10 16 1 0
BITMAP
0F00
7F80
77C0
7080
7000
E000
E000
FF00
FF80
FFC0
01C0
01C0
01C0
FFC0
FFC0
FF00
ENDCHAR
STARTCHAR uni308A
ENCODING 12426
SWIDTH 484 0
DWIDTH 12 0
BBX 10 16 1 0
BITMAP
4080
E1C0
E1C0
E1C0
E1C0
E1C0
E1C0
F1C0
F1C0
F1C0
C380
0780
0700
0F00
0E00
0C00
ENDCHAR
STARTCHAR uni308B
ENCODING 12427
SWIDTH 492 0
DWIDTH 12 0
BBX 10 16 1 0
BITMAP
7E00
FF00
7E00
1C00
3C00
7800
7F00
FF80
FFC0
01C0
79C0
FDC0
FDC0
FFC0
FF80
7F00
ENDCHAR
STARTCHAR uni308C
ENCODING 12428
SWIDTH 642 0
DWIDTH 15 0
BBX 13 17 1 0
BITMAP
1000
3800
F9E0
FBF0
FFF0
3F70
3E70
3C70
3870
3870
3870
7870
F870
F878
3878
3878
3070
ENDCHAR
STARTCHAR uni308D
ENCODING 12429
SWIDTH 489 0
DWIDTH 12 0
BBX 10 16 1 0
BITMAP
7E00
FF00
7E00
1C00
3C00
7800
7F00
FF80
FFC0
01C0
01C0
01C0
01C0
7FC0
FF80
7F00
ENDCHAR
STARTCHAR uni308E
ENCODING 12430
SWIDTH 612 0
DWIDTH 15 0
BBX 13 13 1 0
BITMAP
1000
3800
F9E0
FBF0
FFF8
3F38
3E38
FC38
F838
F838
3BF8
3BF0
3BE0
ENDCHAR
STARTCHAR uni308F
ENCODING 12431
SWIDTH 627 0
DWIDTH 15 0
BBX 13 16 1 0
BITMAP
3000
F9E0
FBF0
FFF8
3F38
3E38
3C38
3838
3838
3838
7838
F838
F838
3BF8
3BF8
33F0
ENDCHAR
STARTCHAR uni3090
ENCODING 12432
SWIDTH 644 0
DWIDTH 15 0
BBX 14 16 1 0
BITMAP
7C00
7C00
7C00
7FF0
FFF8
FFF8
EC1C
EC1C
ECFC
EDFC
EDFC
EDDC
EDDC
FDF8
FDF8
3CF0
ENDCHAR
STARTCHAR uni3091
ENCODING 12433
SWIDTH 539 0
BBX 11 15 1 1
BITMAP
3F00
3F00
3F00
1F00
3F80
3FC0
3DC0
7DC0
6FC0
7F80
3F00
3F80
7FC0
FFE0
EEE0
ENDCHAR
STARTCHAR uni3092
ENCODING 12434
SWIDTH 490 0
DWIDTH 12 0
BBX 10 16 1 0
BITMAP
1800
FF00
FF00
FF00
3800
3E00
7F00
3F00
3FC0
FFC0
FF80
E700
E000
FF80
FFC0
3FC0
ENDCHAR
STARTCHAR uni3093
ENCODING 12435
SWIDTH 539 0
BBX 11 16 1 0
BITMAP
1800
3800
3800
3800
3800
3800
7000
7CE0
7EE0
7EE0
7EE0
6EE0
EEE0
E7E0
E7E0
E3C0
ENDCHAR
STARTCHAR uni3094
ENCODING 12436
SWIDTH 629 0
DWIDTH 15 0
BBX 13 16 1 1
BITMAP
3F78
3FF8
1FF8
0000
3F80
7FC0
FFE0
E0E0
E0E0
00E0
01C0
03C0
0380
0700
0F00
0E00
ENDCHAR
STARTCHAR uni309B
ENCODING 12443
SWIDTH 246 0
DWIDTH 6 0
BBX 4 3 1 13
BITMAP
F0
F0
F0
ENDCHAR
STARTCHAR uni309C
ENCODING 12444
SWIDTH 261 0
DWIDTH 6 0
BBX 4 4 1 12
BITMAP
70
F0
F0
70
ENDCHAR
STARTCHAR uni30A1
ENCODING 12449
SWIDTH 431 0
DWIDTH 10 0
BBX 8 12 1 0
BITMAP
FE
FF
FF
03
3F
3F
3E
38
78
70
F0
E0
ENDCHAR
STARTCHAR uni30A2
ENCODING 12450
SWIDTH 526 0
BBX 11 15 1 1
BITMAP
FF80
FFC0
FFE0
00E0
1CE0
1DE0
1FC0
1F80
1F00
1C00
1C00
3800
7800
7000
E000
ENDCHAR
STARTCHAR uni30A3
ENCODING 12451
SWIDTH 426 0
DWIDTH 10 0
BBX 8 13 1 0
BITMAP
01
07
0F
1E
7C
FC
FC
DC
1C
1C
1C
1C
18
ENDCHAR
STARTCHAR uni30A4
ENCODING 12452
SWIDTH 526 0
BBX 11 16 1 0
BITMAP
00E0
01E0
03C0
0780
1F00
3E00
7E00
FE00
EE00
4E00
0E00
0E00
0E00
0E00
0E00
0E00
ENDCHAR
STARTCHAR uni30A5
ENCODING 12453
SWIDTH 436 0
DWIDTH 10 0
BBX 8 12 1 0
BITMAP
18
FF
FF
FF
E3
E3
03
07
0F
1E
3C
18
ENDCHAR
STARTCHAR uni30A6
ENCODING 12454
SWIDTH 526 0
BBX 11 17 1 0
BITMAP
0400
0E00
FFC0
FFE0
FFE0
E0E0
E0E0
E0E0
00E0
00E0
01C0
01C0
03C0
0780
0F00
0E00
0C00
ENDCHAR
STARTCHAR uni30A7
ENCODING 12455
SWIDTH 426 0
DWIDTH 10 0
BBX 8 12 1 0
BITMAP
FF
FF
FF
1C
1C
1C
1C
1C
1C
FF
FF
FF
ENDCHAR
STARTCHAR uni30A8
ENCODING 12456
SWIDTH 526 0
BBX 11 16 1 0
BITMAP
FFC0
FFE0
FFC0
0E00
0E00
0E00
0E00
0E00
0E00
0E00
0E00
0E00
0E00
FFC0
FFE0
FFC0
ENDCHAR
STARTCHAR uni30A9
ENCODING 12457
SWIDTH 429 0
DWIDTH 10 0
BBX 8 13 1 0
BITMAP
0E
FF
FF
FF
7E
7E
7E
7E
7E
7E
EE
EE
40
ENDCHAR
STARTCHAR uni30AA
ENCODING 12458
SWIDTH 526 0
BBX 11 17 1 0
BITMAP
0100
0380
FFC0
FFE0
FFC0
3B80
3B80
3B80
3B80
3B80
3B80
3B80
3B80
7380
F380
E380
C380
ENDCHAR
STARTCHAR uni30AB
ENCODING 12459
SWIDTH 514 0
DWIDTH 12 0
BBX 10 16 1 0
BITMAP
1800
FFC0
FFC0
FFC0
39C0
39C0
39C0
31C0
71C0
71C0
71C0
71C0
71C0
EFC0
EFC0
EF80
ENDCHAR
STARTCHAR uni30AC
ENCODING 12460
SWIDTH 514 0
DWIDTH 12 0
BBX 10 16 1 0
BITMAP
1F40
FF40
FF40
FFC0
39C0
39C0
39C0
71C0
71C0
71C0
71C0
71C0
71C0
EFC0
EFC0
EF80
ENDCHAR
STARTCHAR uni30AD
ENCODING 12461
SWIDTH 526 0
BBX 11 16 1 0
BITMAP
1C00
FFC0
FFE0
FFC0
0C00
0E00
FFC0
FFE0
FFC0
0E00
0600
0700
0700
0700
0700
0700
ENDCHAR
STARTCHAR uni30AE
ENCODING 12462
SWIDTH 546 0
BBX 11 16 1 0
BITMAP
1DE0
1DE0
FFE0
FE00
FFC0
0E00
FFC0
FFE0
FFC0
0E00
0600
0700
0700
0700
0700
0700
ENDCHAR
STARTCHAR uni30AF
ENCODING 12463
SWIDTH 526 0
BBX 11 16 1 0
BITMAP
3FC0
7FE0
7FC0
71C0
71C0
E1C0
E1C0
E1C0
4380
0380
0380
0380
0380
0F00
1F00
1E00
ENDCHAR
STARTCHAR uni30B0
ENCODING 12464
SWIDTH 581 0
DWIDTH 14 0
BBX 13 16 1 0
BITMAP
3F78
7F78
7F78
71C0
61C0
E1C0
E1C0
E180
4380
0380
0380
0380
0380
1F00
1F00
1E00
ENDCHAR
STARTCHAR uni30B1
ENCODING 12465
SWIDTH 526 0
BBX 11 17 1 0
BITMAP
2000
7000
7FC0
7FE0
7FC0
E380
E380
E380
E380
4380
0380
0380
0700
0700
0E00
1E00
1C00
ENDCHAR
STARTCHAR uni30B2
ENCODING 12466
SWIDTH 526 0
BBX 11 16 1 0
BITMAP
7160
7D60
7D60
7FC0
E380
E380
E380
E380
0380
0380
0380
0700
0F00
0E00
1E00
0C00
ENDCHAR
STARTCHAR uni30B3
ENCODING 12467
SWIDTH 465 0
DWIDTH 11 0
BBX 9 16 1 0
BITMAP
FE00
FF80
FF80
0380
0380
0380
0380
0380
0380
0380
0380
0380
0380
FF80
FF80
FF00
ENDCHAR
STARTCHAR uni30B4
ENCODING 12468
SWIDTH 539 0
BBX 11 16 2 0
BITMAP
FD60
FD60
FD60
0380
0380
0380
0380
0380
0380
0380
0380
0380
0380
FF80
FF00
FE00
ENDCHAR
STARTCHAR uni30B5
ENCODING 12469
SWIDTH 526 0
BBX 11 17 1 0
BITMAP
2100
7380
FFC0
FFE0
FFC0
7380
7380
7380
7380
7380
7380
3380
0380
0700
0F00
0E00
0C00
ENDCHAR
STARTCHAR uni30B6
ENCODING 12470
SWIDTH 539 0
BBX 12 16 1 0
BITMAP
32F0
FEF0
FEF0
FFC0
7380
7380
7380
7380
7380
7380
3380
0380
0700
0F00
0E00
0C00
ENDCHAR
STARTCHAR uni30B7
ENCODING 12471
SWIDTH 498 0
DWIDTH 12 0
BBX 10 16 1 0
BITMAP
FC00
FC00
FC00
01C0
01C0
FDC0
FDC0
FDC0
01C0
01C0
01C0
01C0
01C0
FFC0
FF80
FF80
ENDCHAR
STARTCHAR uni30B8
ENCODING 12472
SWIDTH 526 0
BBX 11 16 1 0
BITMAP
FDE0
FDE0
FDE0
01C0
01C0
FDC0
FDC0
FDC0
01C0
01C0
01C0
01C0
01C0
FFC0
FF80
FF00
ENDCHAR
STARTCHAR uni30B9
ENCODING 12473
SWIDTH 526 0
BBX 11 15 1 1
BITMAP
FF80
FFC0
FFC0
00E0
00E0
00E0
01C0
03C0
0780
0F00
1F00
3F00
7B80
F3C0
E1E0
ENDCHAR
STARTCHAR uni30BA
ENCODING 12474
SWIDTH 539 0
BBX 12 15 1 1
BITMAP
FFD0
FFD0
FFD0
00E0
00E0
00E0
01C0
03C0
0780
0F00
1E00
3F00
7B80
F3C0
E1E0
ENDCHAR
STARTCHAR uni30BB
ENCODING 12475
SWIDTH 526 0
BBX 11 16 1 0
BITMAP
3000
FFC0
FFE0
FFC0
71C0
71C0
71C0
7380
7380
7000
7000
7000
7000
3FC0
3FC0
1FC0
ENDCHAR
STARTCHAR uni30BC
ENCODING 12476
SWIDTH 526 0
BBX 11 16 1 0
BITMAP
7160
FD60
FD60
FFC0
71C0
71C0
71C0
7380
7380
7000
7000
7000
7000
3FC0
3FC0
1FC0
ENDCHAR
STARTCHAR uni30BD
ENCODING 12477
SWIDTH 514 0
DWIDTH 12 0
BBX 10 16 1 0
BITMAP
4000
E0C0
E1C0
E1C0
71C0
71C0
71C0
7380
7380
2380
0380
0380
0380
1F00
3F00
1E00
ENDCHAR
STARTCHAR uni30BE
ENCODING 12478
SWIDTH 561 0
BBX 12 16 2 0
BITMAP
80D0
C1D0
E1D0
E180
E180
E380
6380
7380
7380
0380
0700
0700
0700
3F00
3E00
3C00
ENDCHAR
STARTCHAR uni30BF
ENCODING 12479
SWIDTH 526 0
BBX 11 16 1 0
BITMAP
3FC0
7FE0
7FC0
71C0
71C0
E1C0
FFC0
FFC0
FF80
0380
0380
0380
0380
1F00
3F00
1E00
ENDCHAR
STARTCHAR uni30C0
ENCODING 12480
SWIDTH 526 0
BBX 13 16 1 0
BITMAP
3F58
7F58
7F58
71C0
71C0
E1C0
FFC0
FF80
FF80
0380
0380
0380
0380
1F00
3F00
1E00
ENDCHAR
STARTCHAR uni30C1
ENCODING 12481
SWIDTH 526 0
BBX 11 15 1 0
BITMAP
1FE0
FFE0
FFC0
4E00
FFC0
FFE0
FFC0
0E00
0E00
0E00
0E00
1E00
1C00
3800
7800
ENDCHAR
STARTCHAR uni30C2
ENCODING 12482
SWIDTH 526 0
BBX 11 16 1 0
BITMAP
00C0
FFE0
FFE0
FE00
FFC0
FFE0
FFC0
0E00
0FA0
0FA0
0EA0
1E00
1C00
3C00
7800
3000
ENDCHAR
STARTCHAR uni30C3
ENCODING 12483
SWIDTH 499 0
DWIDTH 12 0
BBX 10 13 2 0
BITMAP
4800
FC80
FDC0
FDC0
FF80
FF80
FF80
4B80
0380
0380
1F00
1F00
1E00
ENDCHAR
STARTCHAR uni30C4
ENCODING 12484
SWIDTH 557 0
BBX 11 16 1 0
BITMAP
4800
FC60
ECE0
EEE0
EEE0
EEE0
6EE0
7EC0
25C0
01C0
01C0
01C0
01C0
0F80
1F80
0F00
ENDCHAR
STARTCHAR uni30C5
ENCODING 12485
SWIDTH 581 0
DWIDTH 14 0
BBX 14 16 1 0
BITMAP
483C
FC7C
ECBC
ECE0
EEE0
EEE0
6EE0
6EC0
65C0
01C0
01C0
01C0
01C0
0F80
1F80
0F00
ENDCHAR
STARTCHAR uni30C6
ENCODING 12486
SWIDTH 526 0
BBX 11 15 1 0
BITMAP
FFC0
FFE0
FFC0
0000
FFC0
FFE0
FFC0
0E00
0E00
0E00
0E00
1E00
1C00
3800
7800
ENDCHAR
STARTCHAR uni30C7
ENCODING 12487
SWIDTH 526 0
BBX 11 16 1 0
BITMAP
01E0
FFE0
FFE0
FE00
0000
FFC0
FFE0
FFC0
0E00
0E00
0E00
0E00
1C00
3C00
3800
7800
ENDCHAR
STARTCHAR uni30C8
ENCODING 12488
SWIDTH 431 0
DWIDTH 10 0
BBX 8 16 1 0
BITMAP
E0
E0
E0
E0
E0
E0
FC
FF
FF
E3
E0
E0
E0
E0
E0
E0
ENDCHAR
STARTCHAR uni30C9
ENCODING 12489
SWIDTH 431 0
DWIDTH 10 0
BBX 8 16 1 0
BITMAP
ED
ED
ED
E0
E0
F0
FC
FF
EF
E3
E0
E0
E0
E0
E0
E0
ENDCHAR
STARTCHAR uni30CA
ENCODING 12490
SWIDTH 526 0
BBX 11 16 1 1
BITMAP
0400
0E00
0E00
FFC0
FFE0
FFC0
0E00
0E00
0E00
0E00
0E00
0E00
1E00
1C00
3800
7800
ENDCHAR
STARTCHAR uni30CB
ENCODING 12491
SWIDTH 526 0
BBX 11 16 1 0
BITMAP
7FC0
7FC0
7FC0
0000
0000
0000
0000
0000
0000
0000
0000
0000
0000
FFC0
FFE0
FFC0
ENDCHAR
STARTCHAR uni30CC
ENCODING 12492
SWIDTH 526 0
BBX 11 15 1 1
BITMAP
FF80
FFC0
FFC0
00E0
00E0
00E0
71C0
7BC0
3F80
1F00
1F00
3F00
7B80
F3C0
E1E0
ENDCHAR
STARTCHAR uni30CD
ENCODING 12493
SWIDTH 526 0
BBX 11 17 1 0
BITMAP
0400
0E00
FF80
FFC0
FFC0
00E0
00E0
01C0
03C0
0780
0F00
1E00
1F00
3F80
7FC0
FFE0
EEC0
ENDCHAR
STARTCHAR uni30CE
ENCODING 12494
SWIDTH 423 0
DWIDTH 10 0
BBX 8 16 1 0
BITMAP
07
07
07
07
07
0E
0E
0E
0E
0E
0E
1C
1C
FC
F8
F0
ENDCHAR
STARTCHAR uni30CF
ENCODING 12495
SWIDTH 565 0
DWIDTH 14 0
BBX 12 16 1 0
BITMAP
1B80
3B80
3B80
39C0
39C0
39C0
71C0
71C0
70C0
70E0
70E0
60E0
E0E0
E0E0
E070
E060
ENDCHAR
STARTCHAR uni30D0
ENCODING 12496
SWIDTH 581 0
DWIDTH 14 0
BBX 14 16 1 0
BITMAP
1BBC
3BBC
39BC
39C0
39C0
39C0
71C0
71C0
70C0
70E0
70E0
60E0
E0E0
E0E0
E070
E060
ENDCHAR
STARTCHAR uni30D1
ENCODING 12497
SWIDTH 564 0
DWIDTH 14 0
BBX 13 16 1 0
BITMAP
1BF0
3B78
3B78
39F0
39C0
39C0
71C0
71C0
70C0
70E0
70E0
60E0
E0E0
E0E0
E070
E060
ENDCHAR
STARTCHAR uni30D2
ENCODING 12498
SWIDTH 500 0
DWIDTH 12 0
BBX 10 16 1 0
BITMAP
E000
E000
E000
FFC0
FFC0
FFC0
E000
E000
E000
E000
E000
E000
E000
FFC0
FFC0
7FC0
ENDCHAR
STARTCHAR uni30D3
ENCODING 12499
SWIDTH 499 0
DWIDTH 12 0
BBX 10 16 1 0
BITMAP
E3C0
E3C0
FFC0
FFC0
FFC0
E000
E000
E000
E000
E000
E000
E000
E000
FFC0
FFC0
7FC0
ENDCHAR
STARTCHAR uni30D4
ENCODING 12500
SWIDTH 499 0
DWIDTH 12 0
BBX 10 16 1 0
BITMAP
E380
E3C0
E3C0
FFC0
FFC0
E000
E000
E000
E000
E000
E000
E000
E000
FFC0
FFC0
7FC0
ENDCHAR
STARTCHAR uni30D5
ENCODING 12501
SWIDTH 526 0
BBX 11 15 1 1
BITMAP
FF80
FFC0
FFC0
00E0
00E0
00E0
01C0
03C0
0780
0F00
1E00
3C00
7800
F000
E000
ENDCHAR
STARTCHAR uni30D6
ENCODING 12502
SWIDTH 526 0
BBX 12 15 1 1
BITMAP
FFD0
FFD0
FFD0
00E0
00E0
00E0
01C0
03C0
0780
0F00
1E00
3C00
7800
F000
E000
ENDCHAR
STARTCHAR uni30D7
ENCODING 12503
SWIDTH 526 0
BBX 13 16 1 0
BITMAP
FF70
FFF8
FF78
00F0
00E0
00E0
01C0
03C0
0780
0F00
1E00
1C00
3800
7800
F000
E000
ENDCHAR
STARTCHAR uni30D8
ENCODING 12504
SWIDTH 539 0
BBX 11 15 1 1
BITMAP
FC00
FE00
FF00
E700
E700
E380
E380
E380
E380
E1C0
01C0
01C0
00E0
00E0
00E0
ENDCHAR
STARTCHAR uni30D9
ENCODING 12505
SWIDTH 539 0
BBX 12 15 1 1
BITMAP
FCF0
FEF0
FFF0
E700
E700
E380
E380
E380
E380
E1C0
01C0
01C0
00E0
00E0
00E0
ENDCHAR
STARTCHAR uni30DA
ENCODING 12506
SWIDTH 514 0
DWIDTH 12 0
BBX 11 16 1 0
BITMAP
FDC0
FDE0
FDE0
E7C0
E700
E300
E380
E380
E380
E1C0
C1C0
01C0
01C0
00E0
00E0
00E0
ENDCHAR
STARTCHAR uni30DB
ENCODING 12507
SWIDTH 581 0
DWIDTH 14 0
BBX 12 17 1 0
BITMAP
0400
0600
7FE0
7FE0
7FE0
0600
76E0
76E0
76E0
76E0
66E0
E660
E670
E670
E670
E670
E670
ENDCHAR
STARTCHAR uni30DC
ENCODING 12508
SWIDTH 581 0
DWIDTH 14 0
BBX 12 16 1 0
BITMAP
06F0
7EF0
7EF0
7FE0
2640
76E0
76E0
76E0
76E0
6660
E670
E670
E670
E670
E670
E670
ENDCHAR
STARTCHAR uni30DD
ENCODING 12509
SWIDTH 569 0
DWIDTH 14 0
BBX 13 16 1 0
BITMAP
0670
7FF8
7FF8
7FF0
0600
76E0
76E0
76E0
76E0
66E0
E660
E670
E670
E670
E670
E670
ENDCHAR
STARTCHAR uni30DE
ENCODING 12510
SWIDTH 526 0
BBX 11 15 1 1
BITMAP
FF80
FFC0
FFC0
00E0
00E0
00E0
71C0
73C0
3F80
3F00
1E00
0E00
0F00
0700
0380
ENDCHAR
STARTCHAR uni30DF
ENCODING 12511
SWIDTH 526 0
BBX 11 15 1 0
BITMAP
FFC0
FFE0
FFC0
0000
0000
FFC0
FFE0
FFC0
0000
0000
0000
F800
FF80
7FE0
07E0
ENDCHAR
STARTCHAR uni30E0
ENCODING 12512
SWIDTH 526 0
BBX 11 16 1 0
BITMAP
1C00
1C00
1C00
3800
3800
7800
7000
7000
E040
E0E0
E0E0
E0E0
E0E0
FFE0
7FE0
7FC0
ENDCHAR
STARTCHAR uni30E1
ENCODING 12513
SWIDTH 526 0
BBX 11 16 1 0
BITMAP
00C0
01C0
C1C0
E380
F380
7B80
3F00
1F00
0F00
0F80
1FC0
1DE0
1CE0
F800
F800
E000
ENDCHAR
STARTCHAR uni30E2
ENCODING 12514
SWIDTH 526 0
BBX 11 16 1 0
BITMAP
FFC0
FFE0
FFC0
3800
3800
FFC0
FFE0
FFC0
3800
3800
3800
3800
3800
3FC0
3FE0
1FC0
ENDCHAR
STARTCHAR uni30E3
ENCODING 12515
SWIDTH 457 0
DWIDTH 11 0
BBX 9 12 1 0
BITMAP
3000
FF80
FF80
FF80
3B80
3F00
3F00
3800
3800
3800
3800
3800
ENDCHAR
STARTCHAR uni30E4
ENCODING 12516
SWIDTH 526 0
BBX 11 17 1 0
BITMAP
2000
7000
FFC0
FFE0
FFC0
39C0
39C0
39C0
3B80
1F80
1C00
1C00
1C00
1C00
0C00
0E00
0E00
ENDCHAR
STARTCHAR uni30E5
ENCODING 12517
SWIDTH 426 0
DWIDTH 10 0
BBX 8 12 1 0
BITMAP
7C
FE
7E
0E
0E
0E
0E
0E
0E
FF
FF
FF
ENDCHAR
STARTCHAR uni30E6
ENCODING 12518
SWIDTH 526 0
BBX 11 16 1 0
BITMAP
7E00
7F00
7F80
0380
0380
0380
0380
0380
0380
0380
0380
0380
0380
FFC0
FFE0
FFC0
ENDCHAR
STARTCHAR uni30E7
ENCODING 12519
SWIDTH 388 0
DWIDTH 9 0
BBX 7 12 1 0
BITMAP
FC
FE
FE
0E
0E
FE
FE
FE
0E
FE
FE
FC
ENDCHAR
STARTCHAR uni30E8
ENCODING 12520
SWIDTH 465 0
DWIDTH 11 0
BBX 9 16 1 0
BITMAP
FE00
FF80
FF80
0380
0380
0380
0380
FF80
FF80
FF80
0380
0380
0380
FF80
FF80
FF00
ENDCHAR
STARTCHAR uni30E9
ENCODING 12521
SWIDTH 526 0
BBX 11 16 1 0
BITMAP
FFC0
FFE0
FFC0
0000
FFC0
FFE0
FFE0
00E0
01C0
01C0
0380
0780
0700
0F00
1E00
0C00
ENDCHAR
STARTCHAR uni30EA
ENCODING 12522
SWIDTH 483 0
DWIDTH 12 0
BBX 10 16 1 0
BITMAP
4080
E1C0
E1C0
E1C0
E1C0
E1C0
E1C0
E1C0
E1C0
E1C0
E380
0780
0700
0F00
0E00
0C00
ENDCHAR
STARTCHAR uni30EB
ENCODING 12523
SWIDTH 570 0
DWIDTH 14 0
BBX 11 16 2 0
BITMAP
4800
FC00
FC00
FC00
FC00
FC00
FC00
FC00
FC00
FC60
FC60
FCE0
FDE0
FFC0
FF80
CF00
ENDCHAR
STARTCHAR uni30EC
ENCODING 12524
SWIDTH 498 0
DWIDTH 12 0
BBX 10 16 1 0
BITMAP
4000
E000
E000
E000
E000
E000
E000
E000
E0C0
E1C0
E3C0
E780
E700
FF00
FE00
F800
ENDCHAR
STARTCHAR uni30ED
ENCODING 12525
SWIDTH 526 0
BBX 11 16 1 0
BITMAP
3F80
7FC0
FFE0
E0E0
E0E0
E0E0
E0E0
E0E0
E0E0
E0E0
E0E0
E0E0
E0E0
FFE0
7FC0
3F80
ENDCHAR
STARTCHAR uni30EE
ENCODING 12526
SWIDTH 434 0
DWIDTH 10 0
BBX 8 12 1 0
BITMAP
FF
FF
FF
E3
E3
E3
07
0F
0E
1E
3C
18
ENDCHAR
STARTCHAR uni30EF
ENCODING 12527
SWIDTH 526 0
BBX 11 15 1 1
BITMAP
FFC0
FFE0
FFE0
E0E0
E0E0
E0E0
E0E0
00E0
01C0
03C0
0380
0780
0F00
0E00
1E00
ENDCHAR
STARTCHAR uni30F0
ENCODING 12528
SWIDTH 526 0
BBX 11 16 1 1
BITMAP
0100
0380
FFC0
FFE0
FFC0
3380
3B80
FFC0
FFE0
FFC0
0380
0380
0380
0380
0380
0380
ENDCHAR
STARTCHAR uni30F1
ENCODING 12529
SWIDTH 526 0
BBX 11 16 1 0
BITMAP
FFC0
FFE0
FFE0
00E0
0EE0
0EE0
0FC0
0FC0
0F80
0F00
0E00
0E00
0E00
FFC0
FFE0
FFC0
ENDCHAR
STARTCHAR uni30F2
ENCODING 12530
SWIDTH 526 0
BBX 11 15 1 1
BITMAP
FFC0
FFE0
FFE0
00E0
FFE0
FFE0
FFE0
00E0
01C0
03C0
0380
0780
0F00
0E00
1E00
ENDCHAR
STARTCHAR uni30F3
ENCODING 12531
SWIDTH 498 0
DWIDTH 12 0
BBX 10 16 1 0
BITMAP
FC00
FE00
FC00
01C0
01C0
01C0
01C0
01C0
01C0
01C0
01C0
01C0
01C0
FFC0
FF80
FF00
ENDCHAR
STARTCHAR uni30F4
ENCODING 12532
SWIDTH 546 0
BBX 11 16 1 0
BITMAP
0FE0
FFE0
FFE0
FFE0
E0E0
E0E0
E0E0
00E0
00E0
01C0
01C0
0380
0780
0F00
0E00
0C00
ENDCHAR
STARTCHAR uni30F5
ENCODING 12533
SWIDTH 419 0
DWIDTH 10 0
BBX 8 13 1 0
BITMAP
10
38
FF
FF
FF
77
77
77
77
E7
EF
EF
EE
ENDCHAR
STARTCHAR uni30F6
ENCODING 12534
SWIDTH 432 0
DWIDTH 10 0
BBX 8 12 1 1
BITMAP
20
7F
7F
FF
EE
EE
EE
0E
0E
1E
1C
38
ENDCHAR
STARTCHAR uni30F7
ENCODING 12535
SWIDTH 526 0
BBX 12 15 1 1
BITMAP
FFD0
FFD0
FFD0
E0E0
E0E0
E0E0
E0E0
00E0
01C0
03C0
0380
0780
0F00
0E00
1E00
ENDCHAR
STARTCHAR uni30F8
ENCODING 12536
SWIDTH 526 0
BBX 13 15 1 1
BITMAP
03F8
FFF8
FFF8
FFC0
3380
3B80
FFC0
FFE0
FFC0
0380
0380
0380
0380
0380
0380
ENDCHAR
STARTCHAR uni30F9
ENCODING 12537
SWIDTH 526 0
BBX 13 16 1 0
BITMAP
FF78
FF78
FF78
00E0
0EE0
0EE0
0FC0
0FC0
0F80
0F00
0E00
0E00
0E00
FFC0
FFE0
FFC0
ENDCHAR
STARTCHAR uni30FA
ENCODING 12538
SWIDTH 526 0
BBX 13 16 1 1
BITMAP
0078
FF78
FF78
FF80
00E0
FFE0
FFE0
FFE0
00E0
01C0
03C0
0380
0780
0F00
0E00
1E00
ENDCHAR
STARTCHAR uni30FB
ENCODING 12539
SWIDTH 443 0
DWIDTH 11 0
BBX 4 4 3 5
BITMAP
70
F0
F0
70
ENDCHAR
STARTCHAR uni30FC
ENCODING 12540
BBX 11 3 1 7
BITMAP
7FE0
FFE0
7FE0
ENDCHAR
STARTCHAR fi
ENCODING 64257
SWIDTH 506 0
DWIDTH 12 0
BBX 10 17 1 0
BITMAP
7DC0
FDC0
FDC0
E180
FFC0
FFC0
FFC0
E1C0
E1C0
E1C0
E1C0
E1C0
E1C0
E1C0
E1C0
E1C0
E1C0
ENDCHAR
STARTCHAR fl
ENCODING 64258
SWIDTH 561 0
BBX 12 17 1 0
BITMAP
7DC0
FDC0
FDC0
E1C0
FFC0
FFC0
FFC0
E1C0
E1C0
E1C0
E1C0
E1C0
E1C0
E1C0
E1E0
E1F0
E0E0
ENDCHAR
STARTCHAR uniFE30
ENCODING 65072
SWIDTH 581 0
DWIDTH 14 0
BBX 4 8 5 4
BITMAP
60
F0
F0
60
60
F0
F0
60
ENDCHAR
STARTCHAR uniFE31
ENCODING 65073
SWIDTH 581 0
DWIDTH 14 0
BBX 2 13 6 2
BITMAP
C0
C0
C0
C0
C0
C0
C0
C0
C0
C0
C0
C0
C0
ENDCHAR
STARTCHAR uniFE32
ENCODING 65074
SWIDTH 581 0
DWIDTH 14 0
BBX 2 13 6 2
BITMAP
C0
C0
C0
C0
C0
C0
C0
C0
C0
C0
C0
C0
C0
ENDCHAR
STARTCHAR uniFE39
ENCODING 65081
SWIDTH 581 0
DWIDTH 14 0
BBX 12 4 1 2
BITMAP
3FC0
7FE0
FFE0
E070
ENDCHAR
STARTCHAR uniFE3A
ENCODING 65082
SWIDTH 581 0
DWIDTH 14 0
BBX 12 5 1 10
BITMAP
4020
E070
7FE0
7FE0
3FC0
ENDCHAR
STARTCHAR uniFE3B
ENCODING 65083
SWIDTH 581 0
DWIDTH 14 0
BBX 12 4 1 2
BITMAP
FFE0
FFF0
FFF0
6060
ENDCHAR
STARTCHAR uniFE3C
ENCODING 65084
SWIDTH 581 0
DWIDTH 14 0
BBX 12 4 1 10
BITMAP
E060
FFF0
FFF0
FFE0
ENDCHAR
STARTCHAR uniFE3D
ENCODING 65085
SWIDTH 581 0
DWIDTH 14 0
BBX 10 11 2 2
BITMAP
0C00
3F00
7F80
FFC0
E9C0
DEC0
3F00
7F80
F3C0
E1C0
C0C0
ENDCHAR
STARTCHAR uniFE3E
ENCODING 65086
SWIDTH 581 0
DWIDTH 14 0
BBX 10 11 2 3
BITMAP
C0C0
E1C0
F3C0
7F80
BF40
DCC0
FBC0
FFC0
7F80
3F00
0C00
ENDCHAR
STARTCHAR uniFE3F
ENCODING 65087
SWIDTH 581 0
DWIDTH 14 0
BBX 10 7 2 2
BITMAP
0800
1E00
3F00
7F80
F3C0
E1C0
C0C0
ENDCHAR
STARTCHAR uniFE40
ENCODING 65088
SWIDTH 581 0
DWIDTH 14 0
BBX 10 6 2 8
BITMAP
C0C0
E1C0
F7C0
7F80
3F00
0C00
ENDCHAR
STARTCHAR uniFE41
ENCODING 65089
SWIDTH 581 0
DWIDTH 14 0
BBX 12 5 1 2
BITMAP
FFE0
FFF0
7FF0
0070
0060
ENDCHAR
STARTCHAR uniFE42
ENCODING 65090
SWIDTH 581 0
DWIDTH 14 0
BBX 12 5 1 10
BITMAP
E000
E000
FFE0
FFF0
7FE0
ENDCHAR
STARTCHAR uniFE43
ENCODING 65091
SWIDTH 581 0
DWIDTH 14 0
BBX 12 6 1 2
BITMAP
FFF0
C030
FFF0
00F0
00F0
0070
ENDCHAR
STARTCHAR uniFE44
ENCODING 65092
SWIDTH 581 0
DWIDTH 14 0
BBX 12 6 1 9
BITMAP
E000
E000
E000
FFF0
C030
FFF0
ENDCHAR
STARTCHAR .notdef
ENCODING -1
SWIDTH 758 0
DWIDTH 18 0
BBX 16 16 1 0
BITMAP
0180
03C0
07E0
0FF0
1FF8
381C
799E
FF9F
FF3F
7E7E
3FFC
1E78
0FF0
07E0
03C0
0180
ENDCHAR
ENDFONT
